<svg xmlns="http://www.w3.org/2000/svg" xmlns:xlink="http://www.w3.org/1999/xlink" width="156.679" height="120.806" viewBox="0 0 156.679 120.806"><defs><linearGradient id="a" x1="0.487" y1="0.672" x2="0.51" y2="-0.197" gradientUnits="objectBoundingBox"><stop offset="0" stop-color="#fff" stop-opacity="0"/><stop offset="0.76" stop-color="#fff" stop-opacity="0.761"/><stop offset="0.99" stop-color="#fff"/></linearGradient><linearGradient id="b" x1="0.467" y1="0.483" x2="0.356" y2="1.371" gradientUnits="objectBoundingBox"><stop offset="0" stop-opacity="0"/><stop offset="0.99"/></linearGradient><linearGradient id="c" x1="0.544" y1="0.194" x2="0.479" y2="1.062" gradientUnits="objectBoundingBox"><stop offset="0" stop-opacity="0.122"/><stop offset="1"/></linearGradient><linearGradient id="d" x1="0.494" y1="-0.902" x2="0.546" y2="14.345" xlink:href="#b"/><linearGradient id="e" x1="0.473" y1="0.617" x2="0.963" y2="-1.132" xlink:href="#b"/><linearGradient id="f" x1="0.505" y1="0.705" x2="0.385" y2="-2.001" xlink:href="#b"/><linearGradient id="g" y1="0.499" x2="1" y2="0.499" gradientUnits="objectBoundingBox"><stop offset="0" stop-color="#ecc4d7"/><stop offset="0.42" stop-color="#efd4d1"/><stop offset="1" stop-color="#f2eac9"/></linearGradient><linearGradient id="h" x1="0.254" y1="-0.232" x2="4.108" y2="7.245" xlink:href="#g"/><linearGradient id="i" x1="0.274" y1="-2.229" x2="1.11" y2="7.07" xlink:href="#b"/><linearGradient id="j" x1="1.216" y1="0.659" x2="-6.06" y2="-0.72" xlink:href="#b"/><linearGradient id="k" x1="-0.001" y1="0.5" x2="1" y2="0.5" xlink:href="#g"/><linearGradient id="l" x1="-0.001" y1="0.5" x2="0.999" y2="0.5" xlink:href="#g"/><linearGradient id="m" x1="0" y1="0.501" x2="1" y2="0.501" xlink:href="#g"/><linearGradient id="n" x1="0" y1="0.498" x2="1" y2="0.498" xlink:href="#g"/><linearGradient id="o" x1="-0.002" y1="0.502" x2="0.999" y2="0.502" xlink:href="#b"/><linearGradient id="p" x1="0" y1="0.501" x2="1" y2="0.501" xlink:href="#b"/><linearGradient id="q" x1="0" y1="0.5" x2="1" y2="0.5" xlink:href="#g"/><linearGradient id="r" x1="-0.245" y1="0.7" x2="7.026" y2="-0.873" xlink:href="#b"/><linearGradient id="s" x1="0.365" y1="1.377" x2="1.535" y2="-6.24" xlink:href="#a"/><linearGradient id="t" x1="0.496" y1="2.218" x2="0.505" y2="-1.688" xlink:href="#a"/><linearGradient id="u" x1="0.26" y1="1.162" x2="0.803" y2="-0.337" xlink:href="#a"/></defs><g transform="translate(-95 -362)"><path d="M154.827,92.188a30.741,30.741,0,0,1-17.248,16.351c-5.018,1.883-10.443,2.372-15.79,2.78A528.091,528.091,0,0,1,60.322,112.4c-16.1-.656-27.412-6.589-41.766-13.053a44.813,44.813,0,0,1-5.764-2.934C4.719,91.253.874,81.425.128,71.792c-.056-.728-.091-1.453-.113-2.178a22.5,22.5,0,0,1,1.145-8.651C5.083,50.756,19.7,47.37,22.51,36.8c1.452-5.472-.79-11.5,1.013-16.86,1.678-4.983,6.435-8.212,11.1-10.622a85.187,85.187,0,0,1,63.942-5.5c13.576,4.271,27.19,13.684,29.627,27.713,1.392,8.02-1,16.822,2.694,24.073,4,7.845,13.915,11.456,20.234,17.242a15.934,15.934,0,0,1,5.284,8.6A18.057,18.057,0,0,1,154.827,92.188Z" transform="translate(95 369.972)" fill="#f27272" opacity="0.18"/><path d="M154.516,21.436a30.672,30.672,0,0,1-17.228,16.291c-5.012,1.876-10.431,2.363-15.771,2.77A528.789,528.789,0,0,1,60.123,41.57C44.044,40.916,32.743,35,18.406,28.564a44.8,44.8,0,0,1-5.757-2.923C4.586,20.5.746,10.713,0,1.116A4.311,4.311,0,0,1,.915.909C5.582.244,10.34-.416,15.01.331c2.9.472,5.692,1.482,8.583,2.01,8.144,1.507,16.3-.872,24.473-.35,6.907.441,13.71,1.92,20.708,2.129,7.367.225,14.744-.031,22.108-.366,14.722-.672,29.548-1.726,44.254-.106a30.925,30.925,0,0,0,6.127.313,38.312,38.312,0,0,0,4.868-.972,46.586,46.586,0,0,1,4.7-.819,15.869,15.869,0,0,1,5.278,8.569A18.072,18.072,0,0,1,154.516,21.436Z" transform="translate(95.307 440.8)" fill="url(#a)"/><path d="M13.388,10.4a1.422,1.422,0,0,0,.375-1.176,1.145,1.145,0,0,0-.626-.626,3.853,3.853,0,0,0-4.42,1.289,11.331,11.331,0,0,0-1.939,4.524c.106-4.1.166-8.416-1.749-12.048A4.955,4.955,0,0,0,3.388.4,2.3,2.3,0,0,0,.938.32,2.54,2.54,0,0,0,0,2.51,14.171,14.171,0,0,0,1.02,6.48a34.473,34.473,0,0,1,1.017,7A68.8,68.8,0,0,0,4.041,26.062c-.044-.15,1.7-1.327,1.877-1.683.694-1.342.71-3.26,1.373-4.715C8.824,16.282,11.261,13.407,13.388,10.4Z" transform="translate(110.944 434.667)" fill="#f27272"/><path d="M13.388,10.4a1.422,1.422,0,0,0,.375-1.176,1.145,1.145,0,0,0-.626-.626,3.853,3.853,0,0,0-4.42,1.289,11.331,11.331,0,0,0-1.939,4.524c.106-4.1.166-8.416-1.749-12.048A4.955,4.955,0,0,0,3.388.4,2.3,2.3,0,0,0,.938.32,2.54,2.54,0,0,0,0,2.51,14.171,14.171,0,0,0,1.02,6.48a34.473,34.473,0,0,1,1.017,7A68.8,68.8,0,0,0,4.041,26.062c-.044-.15,1.7-1.327,1.877-1.683.694-1.342.71-3.26,1.373-4.715C8.824,16.282,11.261,13.407,13.388,10.4Z" transform="translate(110.944 434.667)" fill="url(#b)"/><path d="M25.121.427a9.4,9.4,0,0,1,6.529.365,9.281,9.281,0,0,1,4.2,3.235,6.4,6.4,0,0,1,1.012,5.118c-.314,1.173-1,2.314-.785,3.508a3.865,3.865,0,0,0,1.967,2.4,17.894,17.894,0,0,1,2.714,1.685,4.745,4.745,0,0,1,1.225,5.118,4.051,4.051,0,0,0-.559,2.031,2.169,2.169,0,0,0,1.448,1.493c.675.264,1.411.352,2.086.629a4.088,4.088,0,0,1,1.279,6.777,7.576,7.576,0,0,1-3.406,1.572A43.235,43.235,0,0,1,28.313,35.48c-3.748-.349-7.5-1.191-11.244-.758-2.334.27-4.59,1.034-6.912,1.339s-4.882.082-6.72-1.386a8.61,8.61,0,0,1-2.184-2.87A9.626,9.626,0,0,1,.1,25.946a5.417,5.417,0,0,1,3.7-4.4,13.746,13.746,0,0,1,2.7-.211,11.23,11.23,0,0,0,5.058-1.525,2.049,2.049,0,0,0,1.068-1.147c.207-.861-.606-1.572-1.04-2.351a3.049,3.049,0,0,1,1.806-4.241c1.005-.261,2.237-.031,2.944-.792.886-.943.437-2.446,1.392-3.439.855-.886,2.048-1.22,2.733-2.323C21.8,3.341,22.406,1.363,25.121.427Z" transform="translate(149.884 362)" fill="#3f3d56"/><path d="M25.121.427a9.4,9.4,0,0,1,6.529.365,9.281,9.281,0,0,1,4.2,3.235,6.4,6.4,0,0,1,1.012,5.118c-.314,1.173-1,2.314-.785,3.508a3.865,3.865,0,0,0,1.967,2.4,17.894,17.894,0,0,1,2.714,1.685,4.745,4.745,0,0,1,1.225,5.118,4.051,4.051,0,0,0-.559,2.031,2.169,2.169,0,0,0,1.448,1.493c.675.264,1.411.352,2.086.629a4.088,4.088,0,0,1,1.279,6.777,7.576,7.576,0,0,1-3.406,1.572A43.235,43.235,0,0,1,28.313,35.48c-3.748-.349-7.5-1.191-11.244-.758-2.334.27-4.59,1.034-6.912,1.339s-4.882.082-6.72-1.386a8.61,8.61,0,0,1-2.184-2.87A9.626,9.626,0,0,1,.1,25.946a5.417,5.417,0,0,1,3.7-4.4,13.746,13.746,0,0,1,2.7-.211,11.23,11.23,0,0,0,5.058-1.525,2.049,2.049,0,0,0,1.068-1.147c.207-.861-.606-1.572-1.04-2.351a3.049,3.049,0,0,1,1.806-4.241c1.005-.261,2.237-.031,2.944-.792.886-.943.437-2.446,1.392-3.439.855-.886,2.048-1.22,2.733-2.323C21.8,3.341,22.406,1.363,25.121.427Z" transform="translate(149.884 362)" fill="url(#c)"/><path d="M.15,17.717C5.6,25.158,15.313,28.172,24.434,29.346,117.451,41.312,130.428,18.454,130.852,17.96c1.53-1.779-21.058-21.821-87.539-17.3C38.663.978-2.8,13.684.15,17.717Z" transform="translate(112.477 444.172)" fill="#f27272"/><path d="M2.01,4.83A4.47,4.47,0,0,0,.336,6.2,1.818,1.818,0,0,0,.317,8.277a2.484,2.484,0,0,0,1.366.689,47.485,47.485,0,0,0,22.984.094,88.892,88.892,0,0,1,9.177-2.24,42.394,42.394,0,0,1,7.613-.142c9.35.427,18.681,1.295,27.98,2.382,5.276.618,10.594,1.295,15.879.786a2.182,2.182,0,0,0,1.454-.531c.835-.909-.179-2.392-1.281-2.913-1.63-.78-3.847-1.107-4.4-2.874a2.393,2.393,0,0,0-.314-.841,1.511,1.511,0,0,0-1.046-.421A318.935,318.935,0,0,0,15.452,1.088,30.819,30.819,0,0,0,2.01,4.83Z" transform="translate(134.553 445.399)" fill="url(#d)"/><path d="M.079,3.8s3.877-7.374,20.795-1.58S61.936,18.379,61.936,18.379L60,25.756S20.17,21.013,14.529,17.85-.979,14.34.079,3.8Z" transform="translate(133.02 425.776)" fill="#f27272"/><path d="M.079,3.8s3.877-7.374,20.795-1.58S61.936,18.379,61.936,18.379L60,25.756S20.17,21.013,14.529,17.85-.979,14.34.079,3.8Z" transform="translate(133.02 425.776)" fill="url(#e)"/><path d="M1.019,16.415S30.435,2.059,44.715.447,60.04,2.044,60.57,2.755s5.811,9.934-13.389,14.372S.5,24.222.5,24.222-.92,22.449,1.019,16.415Z" transform="translate(160.002 428.535)" fill="#f27272"/><path d="M1.019,16.415S30.435,2.059,44.715.447,60.04,2.044,60.57,2.755s5.811,9.934-13.389,14.372S.5,24.222.5,24.222-.92,22.449,1.019,16.415Z" transform="translate(160.002 428.535)" fill="url(#f)"/><path d="M3.848,4.9A19.054,19.054,0,0,1,0,6.749,9.057,9.057,0,0,0,2.838,9.692,10.931,10.931,0,0,0,8.511,11.03a10.247,10.247,0,0,0,3.29-.4A11.466,11.466,0,0,0,15.6,8.2c.511-.451,1.067-1.052.936-1.726A5.155,5.155,0,0,1,11.52,3.371,9.9,9.9,0,0,1,11.1,2,9.5,9.5,0,0,0,10.728.412,1.426,1.426,0,0,0,9.48.021c-1,.184-2.4-.165-3.119.671C5.52,1.648,4.974,4.175,3.848,4.9Z" transform="translate(169.2 381.623)" fill="url(#g)"/><path d="M1.24,4.164a2.918,2.918,0,0,0,1.806.423c.638-.07,1.136-1.522,1.442-2.061A3.642,3.642,0,0,0,4.718,2a6.417,6.417,0,0,0,.495-2c0,.192-1.331.393-1.5.417C3.154.5,2.589.524,2.031.578,1.255.654-.3.688.049,1.756.222,2.3.739,3.865,1.24,4.164Z" transform="translate(175.026 381.623)" fill="url(#h)"/><path d="M23.307.253s-4.249.475-5.391,2.842S.082,27.026,0,28.428,7.9,37.9,7.9,37.9l3.689-7.892-1.142-2.451,7.115-9.818-.282,25.358,14.965,5.965,13.689-5.253.507-26.158s5.973,8.413,6.148,10.518a5.29,5.29,0,0,1-.7,3.332l5.094,7.361s7.9-8.238,7.378-12.1S47.5,3.27,45.938,2.408A61.005,61.005,0,0,0,39.893,0Z" transform="translate(145.898 388.062)" fill="#f27272"/><path d="M4.847.357a26.333,26.333,0,0,0-3.771.7c-.424.111-.908.288-1.043.713C-.15,2.343.449,2.856,1,3.1c3.387,1.53,7.351.26,11.015.855,3.14.513,5.9,2.37,8.946,3.317a1.232,1.232,0,0,0,.453.082,5.205,5.205,0,0,0,1.021-.082,18.875,18.875,0,0,1,4.276-1.3l6.012-.687c2.513-.288,4.576-1.524,7.076-1.9a11.675,11.675,0,0,0,3.174-.51c.362-.168.73-.6.5-.922a.707.707,0,0,0-.375-.225,10.259,10.259,0,0,0-3.38-.317C28.11,1.624,16.387-.911,4.847.357Z" transform="translate(155.403 429.762)" fill="#f27272"/><path d="M4.847.357a26.333,26.333,0,0,0-3.771.7c-.424.111-.908.288-1.043.713C-.15,2.343.449,2.856,1,3.1c3.387,1.53,7.351.26,11.015.855,3.14.513,5.9,2.37,8.946,3.317a1.232,1.232,0,0,0,.453.082,5.205,5.205,0,0,0,1.021-.082,18.875,18.875,0,0,1,4.276-1.3l6.012-.687c2.513-.288,4.576-1.524,7.076-1.9a11.675,11.675,0,0,0,3.174-.51c.362-.168.73-.6.5-.922a.707.707,0,0,0-.375-.225,10.259,10.259,0,0,0-3.38-.317C28.11,1.624,16.387-.911,4.847.357Z" transform="translate(155.403 429.762)" fill="url(#i)"/><path d="M0,0,.3,4.342l5.44,8.333a5.138,5.138,0,0,1,.416,4.85l-.413.947L8.551,20.85l2.794-6.088Z" transform="translate(191.89 401.246)" fill="url(#j)"/><path d="M9.621,2.82a6.362,6.362,0,0,1,1.543.769,5.185,5.185,0,0,1,1.7,3.948,1.5,1.5,0,0,1-.1.8,1.281,1.281,0,0,1-1.185.55c-1.115,0-2.11-.732-3.222-.836C7.78,7.994,7.2,8.1,6.636,7.994c-1.318-.261-2.053-1.577-2.852-2.62a9.358,9.358,0,0,0-2.7-2.337C-.962,1.866.132-.381,2.349.055,4.8.544,7.286,1.9,9.621,2.82Z" transform="translate(154.176 419.643)" fill="url(#k)"/><path d="M4.151,1.372A4.426,4.426,0,0,0,2.73,1.89,9.556,9.556,0,0,0,1.192,3.56C.756,4.012.2,4.407.039,5.024A1.76,1.76,0,0,0,.171,6.149,2.59,2.59,0,0,0,3.13,7.591c.474-.133.9-.4,1.372-.541,1.461-.427,3.174.455,4.475-.345A5.16,5.16,0,0,0,10.062,5.64a10.188,10.188,0,0,1,2.417-2.02,1.613,1.613,0,0,0,.584-.474c.308-.5-.028-1.151-.4-1.606C11.588.212,10.966-.253,9.339.129,7.6.534,5.876.958,4.151,1.372Z" transform="translate(187.904 420.563)" fill="url(#l)"/><path d="M14.048.722c-2.966.29-5.939-.786-8.908-.511A12.586,12.586,0,0,0,2.013.95a3.6,3.6,0,0,0-1.321.724A2.828,2.828,0,0,0,.062,4.218,5.821,5.821,0,0,0,3.3,8.241a6.145,6.145,0,0,0,3.24.631,10.574,10.574,0,0,0,1.573-.308,15.943,15.943,0,0,0,3.366-1.09c.679-.339,1.305-.77,1.988-1.1.969-.462,2.035-.7,2.988-1.189a.63.63,0,0,0,.2-.132.7.7,0,0,0,.129-.243A11.4,11.4,0,0,0,17.467.737c0-.2.066-.616-.142-.724-.16-.08-.852.228-1.038.277a14.216,14.216,0,0,1-2.24.431Z" transform="translate(142.832 445.705)" fill="url(#m)"/><path d="M5.062,4.819c1.424.356,2.716,1.106,4.128,1.5a13.968,13.968,0,0,0,3.714.424A10.894,10.894,0,0,0,18.4,5.656a2.064,2.064,0,0,0,.674-.561,2.193,2.193,0,0,0-.044-2.078A4.817,4.817,0,0,0,16.554.23c-1.411-.542-2.983,0-4.451.35-3.613.9-7.412.759-11.066,1.471a.762.762,0,0,0-.778.7A3.254,3.254,0,0,0,.053,4.342c.191.52.712.334,1.17.31a11.75,11.75,0,0,1,3.839.167Z" transform="translate(193.116 445.399)" fill="url(#n)"/><path d="M.792,3.27a4.8,4.8,0,0,1-.458.723A1.806,1.806,0,0,0,.015,5.271,2.051,2.051,0,0,0,1.024,6.524a9.376,9.376,0,0,0,4.8,1.118,12.9,12.9,0,0,0,2.67-.116,14.6,14.6,0,0,0,1.859-.489,4.88,4.88,0,0,0,1.709-.786A3.131,3.131,0,0,0,12.934,5a2.854,2.854,0,0,0,.191-1.747,3.505,3.505,0,0,0-.668-1.231A11.518,11.518,0,0,0,11.438.852a2.945,2.945,0,0,0-.955-.7A3.387,3.387,0,0,0,9.131.016a49.639,49.639,0,0,0-7.795.8,1.2,1.2,0,0,0-.557.213c-.334.285,0,.664.064.993A2.029,2.029,0,0,1,.792,3.27Z" transform="translate(200.168 445.705)" fill="#f27272"/><path d="M13.346,4.5c.291.2.619.343.9.561a1.089,1.089,0,0,1,.474.9c-.04.43-.44.726-.8.934a20.207,20.207,0,0,1-5.4,2.289,7.521,7.521,0,0,1-2.56.311,7.118,7.118,0,0,1-2.046-.564A7.315,7.315,0,0,1,.889,6.848a3.692,3.692,0,0,1-.7-3.488A5.649,5.649,0,0,1,2.254,1.05,5.126,5.126,0,0,1,3.669.206,5.039,5.039,0,0,1,5.217.019C6.588,0,7.956,0,9.328,0c.929,0,2.771-.016,2.984,1.2.1.557-.136,1.118,0,1.7a2.623,2.623,0,0,0,1.034,1.6Z" transform="translate(142.525 445.399)" fill="#f27272"/><path d="M.792,3.27a4.8,4.8,0,0,1-.458.723A1.806,1.806,0,0,0,.015,5.271,2.051,2.051,0,0,0,1.024,6.524a9.376,9.376,0,0,0,4.8,1.118,12.9,12.9,0,0,0,2.67-.116,14.6,14.6,0,0,0,1.859-.489,4.88,4.88,0,0,0,1.709-.786A3.131,3.131,0,0,0,12.934,5a2.854,2.854,0,0,0,.191-1.747,3.505,3.505,0,0,0-.668-1.231A11.518,11.518,0,0,0,11.438.852a2.945,2.945,0,0,0-.955-.7A3.387,3.387,0,0,0,9.131.016a49.639,49.639,0,0,0-7.795.8,1.2,1.2,0,0,0-.557.213c-.334.285,0,.664.064.993A2.029,2.029,0,0,1,.792,3.27Z" transform="translate(200.168 445.705)" fill="url(#o)"/><path d="M13.346,4.5c.291.2.619.343.9.561a1.089,1.089,0,0,1,.474.9c-.04.43-.44.726-.8.934a20.207,20.207,0,0,1-5.4,2.289,7.521,7.521,0,0,1-2.56.311,7.118,7.118,0,0,1-2.046-.564A7.315,7.315,0,0,1,.889,6.848a3.692,3.692,0,0,1-.7-3.488A5.649,5.649,0,0,1,2.254,1.05,5.126,5.126,0,0,1,3.669.206,5.039,5.039,0,0,1,5.217.019C6.588,0,7.956,0,9.328,0c.929,0,2.771-.016,2.984,1.2.1.557-.136,1.118,0,1.7a2.623,2.623,0,0,0,1.034,1.6Z" transform="translate(142.525 445.399)" fill="url(#p)"/><path d="M.046,5.506s-.27,11.027,5.686,10.413S11.958,5.163,11.958,5.163,9.522-.788,4.379.088.046,5.506.046,5.506Z" transform="translate(171.653 367.212)" fill="url(#q)"/><path d="M5.24,3.311a7.393,7.393,0,0,0,7.608,5.432,1.672,1.672,0,0,0,1.471-.785,1.717,1.717,0,0,0,.078-.766A8.829,8.829,0,0,0,12.8,2.5,6.055,6.055,0,0,0,8.6.023C6.182-.2,3.925,1.292,2.283,3.085,1.257,4.211-1.844,9.341,1.538,9.5A3.148,3.148,0,0,0,4.187,7.883C5.01,6.466,4.3,4.639,5.24,3.311Z" transform="translate(169.507 365.066)" fill="#37354b"/><path d="M11.345,0l-.3,4.37-7.27,9.99,1.164,2.5L4.094,18.4,0,14.866,11.345,0Z" transform="translate(152.337 401.246)" fill="url(#r)"/><path d="M0,.484c.236.617,1.024.79,1.681.947,1.256.309,2.444.926,3.71,1.234a17.257,17.257,0,0,0,4.03.376c1.709.028,3.421.056,5.126-.065A41.225,41.225,0,0,1,21.4,2.632c.154-.111-.025-.336-.192-.429-1.187-.66-2.431-1.213-3.66-1.8A5.578,5.578,0,0,0,14.538.043c-3.094.173-6.194,0-9.292.031A35.951,35.951,0,0,0,0,.484Z" transform="translate(169.2 388.675)" fill="url(#s)"/><rect width="36.487" height="27.902" transform="translate(160.002 404.313)" fill="#f27272"/><rect width="36.487" height="1.84" transform="translate(160.309 404.926)" fill="url(#t)"/><rect width="36.487" height="25.755" transform="translate(160.309 406.766)" fill="url(#u)"/></g></svg>