<svg xmlns="http://www.w3.org/2000/svg" width="283.007" height="292.691" viewBox="0 0 283.007 292.691"><g transform="translate(-46.372 -173.499)"><g transform="translate(45.377 173.499)"><path d="M44.511,49A19.515,19.515,0,1,0,64.025,68.515,19.534,19.534,0,0,0,44.511,49Zm0,29.272a9.757,9.757,0,1,1,9.757-9.757A9.767,9.767,0,0,1,44.511,78.272Z" transform="translate(93.092 190.055)" fill="#3f4852"/><path d="M29.875,12.757H49.389a4.879,4.879,0,0,0,0-9.757H29.875a4.879,4.879,0,0,0,0,9.757Z" transform="translate(93.092 11.636)" fill="#3f4852"/><path d="M36.875,12.757h4.879a4.879,4.879,0,1,0,0-9.757H36.875a4.879,4.879,0,1,0,0,9.757Z" transform="translate(120.243 11.636)" fill="#3f4852"/><path d="M12.807,19.881l-1.234-4.605A4.879,4.879,0,0,0,2.147,17.8l1.234,4.605a4.879,4.879,0,0,0,4.708,3.615,4.979,4.979,0,0,0,1.268-.166A4.885,4.885,0,0,0,12.807,19.881Z" transform="translate(3.819 45.21)" fill="#3f4852"/><path d="M6.415,21.374a4.876,4.876,0,0,0,4.391-5.318c-.039-.4-.059-.781-.059-1.176a12.076,12.076,0,0,1,.2-2.191A4.874,4.874,0,1,0,1.38,10.85,21.448,21.448,0,0,0,1,14.89c0,.693.034,1.39.1,2.1A4.876,4.876,0,0,0,5.947,21.4,3.767,3.767,0,0,0,6.415,21.374Z" transform="translate(0 26.745)" fill="#3f4852"/><path d="M15.337,29.334,14.1,24.724a4.879,4.879,0,0,0-9.426,2.527l1.234,4.61a4.881,4.881,0,0,0,4.708,3.615,4.942,4.942,0,0,0,1.264-.166A4.872,4.872,0,0,0,15.337,29.334Z" transform="translate(13.632 81.841)" fill="#3f4852"/><path d="M20.4,48.222l-1.234-4.605A4.879,4.879,0,1,0,9.74,46.144l1.234,4.605a4.879,4.879,0,0,0,4.708,3.615,4.979,4.979,0,0,0,1.268-.166A4.881,4.881,0,0,0,20.4,48.222Z" transform="translate(33.27 155.121)" fill="#3f4852"/><path d="M14.072,24.606,12.838,20a4.879,4.879,0,1,0-9.426,2.527l1.234,4.605a4.879,4.879,0,0,0,4.708,3.615,4.979,4.979,0,0,0,1.268-.166A4.876,4.876,0,0,0,14.072,24.606Z" transform="translate(8.726 63.522)" fill="#3f4852"/><path d="M8.495,14.971a4.942,4.942,0,0,0,1.264-.166l4.61-1.234a4.879,4.879,0,0,0-2.527-9.426L7.231,5.379a4.879,4.879,0,0,0,1.264,9.591Z" transform="translate(10.161 15.389)" fill="#3f4852"/><path d="M13.214,13.7a4.942,4.942,0,0,0,1.264-.166L19.083,12.3a4.879,4.879,0,0,0-2.522-9.426L11.955,4.11A4.879,4.879,0,0,0,13.214,13.7Z" transform="translate(28.484 10.477)" fill="#3f4852"/><path d="M19.134,43.5,17.9,38.889a4.879,4.879,0,1,0-9.426,2.527l1.234,4.61A4.879,4.879,0,0,0,19.134,43.5Z" transform="translate(28.359 136.802)" fill="#3f4852"/><path d="M16.6,34.05l-1.234-4.605a4.879,4.879,0,0,0-9.426,2.527l1.234,4.605a4.881,4.881,0,0,0,4.708,3.615,4.942,4.942,0,0,0,1.264-.166A4.881,4.881,0,0,0,16.6,34.05Z" transform="translate(18.543 100.167)" fill="#3f4852"/><path d="M17.869,38.776l-1.234-4.605A4.879,4.879,0,1,0,7.209,36.7L8.443,41.3a4.881,4.881,0,0,0,4.708,3.615,4.942,4.942,0,0,0,1.264-.166A4.879,4.879,0,0,0,17.869,38.776Z" transform="translate(23.453 118.478)" fill="#3f4852"/><path d="M61.881,16.551A4.861,4.861,0,0,0,55.9,20L54.67,24.606a4.881,4.881,0,0,0,3.449,5.976,4.951,4.951,0,0,0,1.268.166A4.875,4.875,0,0,0,64.1,27.133l1.234-4.605A4.886,4.886,0,0,0,61.881,16.551Z" transform="translate(207.538 63.527)" fill="#3f4852"/><path d="M63.145,11.827a4.866,4.866,0,0,0-5.976,3.449l-1.234,4.605a4.882,4.882,0,0,0,3.449,5.976,4.942,4.942,0,0,0,1.264.166,4.876,4.876,0,0,0,4.708-3.615L66.589,17.8A4.872,4.872,0,0,0,63.145,11.827Z" transform="translate(212.441 45.205)" fill="#3f4852"/><path d="M66.614,10.85a4.878,4.878,0,1,0-9.582,1.839,11.277,11.277,0,0,1,.2,2.2,11.666,11.666,0,0,1-.059,1.166,4.884,4.884,0,0,0,4.391,5.323,3.766,3.766,0,0,0,.468.024,4.884,4.884,0,0,0,4.854-4.41q.1-1.061.1-2.093A21.02,21.02,0,0,0,66.614,10.85Z" transform="translate(217.008 26.75)" fill="#3f4852"/><path d="M52.337,12.3l4.605,1.234a4.942,4.942,0,0,0,1.264.166A4.879,4.879,0,0,0,59.464,4.11L54.859,2.875A4.879,4.879,0,1,0,52.337,12.3Z" transform="translate(185.098 10.477)" fill="#3f4852"/><path d="M57.06,13.569,61.67,14.8a4.942,4.942,0,0,0,1.264.166,4.879,4.879,0,0,0,1.259-9.591l-4.61-1.234a4.879,4.879,0,1,0-2.522,9.426Z" transform="translate(203.417 15.39)" fill="#3f4852"/><path d="M60.615,21.27a4.876,4.876,0,0,0-5.976,3.449L53.4,29.325A4.881,4.881,0,0,0,56.854,35.3a4.951,4.951,0,0,0,1.268.166,4.875,4.875,0,0,0,4.708-3.615l1.234-4.605A4.88,4.88,0,0,0,60.615,21.27Z" transform="translate(202.628 81.85)" fill="#3f4852"/><path d="M194.19,218.325a4.885,4.885,0,0,0-5.976,3.449l-.932,3.474v-.839c0-.083-.044-.151-.049-.234V205.563c0-.083.049-.151.049-.234v-4.771c0-.083-.044-.151-.049-.234V181.711c0-.083.049-.151.049-.234v-4.771c0-.083-.044-.151-.049-.234V157.859c0-.083.049-.151.049-.234v-4.771c0-.083-.044-.151-.049-.234V134.007c0-.083.049-.151.049-.234V129c0-.083-.044-.151-.049-.234V110.155c0-.083.049-.151.049-.234v-4.786c0-.083-.044-.151-.049-.234V86.289c0-.083.049-.151.049-.234V81.279c0-.083-.044-.151-.049-.234V62.437c0-.083.049-.151.049-.234V57.427c0-.083-.044-.151-.049-.234V38.581c0-.083.049-.151.049-.234V33.57c0-.083-.044-.151-.049-.234V21.491A21.511,21.511,0,0,0,165.743,0H42.854A21.518,21.518,0,0,0,21.364,21.491V225.219l-.932-3.474a4.879,4.879,0,1,0-9.426,2.527l1.234,4.605a4.876,4.876,0,0,0,9.128.8V241.26a4.659,4.659,0,0,0-.732.078,4.88,4.88,0,0,0-3.449,5.976l1.234,4.605a4.834,4.834,0,0,0,2.947,3.239V271.2a21.514,21.514,0,0,0,21.491,21.491H165.743A21.518,21.518,0,0,0,187.233,271.2V255.184a4.817,4.817,0,0,0,3-3.259l1.234-4.605a4.882,4.882,0,0,0-3.449-5.976,4.7,4.7,0,0,0-.781-.078V229.732a.322.322,0,0,0,.02-.073,4.881,4.881,0,0,0,9.147-.776l1.234-4.61A4.852,4.852,0,0,0,194.19,218.325ZM31.121,39.029h146.36V224.419H31.121V39.029ZM42.854,9.757H165.743a11.747,11.747,0,0,1,11.733,11.733v7.781H31.116V21.491A11.755,11.755,0,0,1,42.854,9.757ZM165.743,282.963H42.854A11.747,11.747,0,0,1,31.121,271.23V234.176h146.36V271.23A11.748,11.748,0,0,1,165.743,282.963Z" transform="translate(38.18)" fill="#3f4852"/><path d="M56.818,35.444a4.858,4.858,0,0,0-5.976,3.449L49.607,43.5a4.882,4.882,0,0,0,3.449,5.976,4.942,4.942,0,0,0,1.264.166,4.876,4.876,0,0,0,4.708-3.615l1.234-4.605A4.871,4.871,0,0,0,56.818,35.444Z" transform="translate(187.901 136.802)" fill="#3f4852"/><path d="M55.553,40.165a4.858,4.858,0,0,0-5.976,3.449L48.342,48.22A4.881,4.881,0,0,0,51.792,54.2a4.952,4.952,0,0,0,1.268.166,4.875,4.875,0,0,0,4.708-3.615L59,46.142A4.885,4.885,0,0,0,55.553,40.165Z" transform="translate(182.994 155.118)" fill="#3f4852"/><path d="M58.079,30.722a4.854,4.854,0,0,0-5.971,3.449l-1.234,4.61A4.879,4.879,0,0,0,60.3,41.308l1.234-4.61A4.885,4.885,0,0,0,58.079,30.722Z" transform="translate(192.811 118.478)" fill="#3f4852"/><path d="M59.349,25.995a4.87,4.87,0,0,0-5.976,3.449l-1.234,4.605a4.882,4.882,0,0,0,3.449,5.976,4.942,4.942,0,0,0,1.264.166,4.876,4.876,0,0,0,4.708-3.615l1.234-4.605A4.876,4.876,0,0,0,59.349,25.995Z" transform="translate(197.718 100.163)" fill="#3f4852"/></g><g transform="translate(-1874.854 -1699.854)"><g transform="translate(2018 1973.999)"><path d="M62.673,103.35a45.674,45.674,0,0,0,32.3-77.973,45.676,45.676,0,0,0-64.6,64.6,45.371,45.371,0,0,0,32.3,13.377ZM34.686,29.683a39.588,39.588,0,1,1-11.6,27.993,39.341,39.341,0,0,1,11.6-27.993Z" transform="translate(-17 -11.997)" fill="#724a50"/><path d="M26.944,56.383a3.044,3.044,0,0,0,4.306,0L44.167,43.468,57.081,56.383a3.045,3.045,0,0,0,4.306-4.306L48.473,39.163,61.387,26.248a3.045,3.045,0,0,0-4.306-4.306L44.167,34.857,31.249,21.943a3.045,3.045,0,1,0-4.306,4.306L39.861,39.163,26.944,52.077A3.042,3.042,0,0,0,26.944,56.383Z" transform="translate(1.51 6.517)" fill="#724a50"/></g></g></g></svg>