<svg xmlns="http://www.w3.org/2000/svg" width="93.262" height="96.454" viewBox="0 0 93.262 96.454"><g transform="translate(-0.995)"><path d="M31.427,49a6.431,6.431,0,1,0,6.431,6.431A6.437,6.437,0,0,0,31.427,49Zm0,9.646a3.215,3.215,0,1,1,3.215-3.215A3.219,3.219,0,0,1,31.427,58.646Z" transform="translate(14.586 29.778)" fill="#484e56"/><path d="M26.6,6.215h6.431a1.608,1.608,0,1,0,0-3.215H26.6a1.608,1.608,0,0,0,0,3.215Z" transform="translate(14.586 1.823)" fill="#484e56"/><path d="M33.6,6.215h1.608a1.608,1.608,0,0,0,0-3.215H33.6a1.608,1.608,0,1,0,0,3.215Z" transform="translate(18.84 1.823)" fill="#484e56"/><path d="M5.548,14.367l-.407-1.518a1.608,1.608,0,0,0-3.106.833L2.442,15.2a1.608,1.608,0,0,0,1.551,1.191,1.641,1.641,0,0,0,.418-.055A1.61,1.61,0,0,0,5.548,14.367Z" transform="translate(0.598 7.084)" fill="#484e56"/><path d="M2.781,11.667A1.607,1.607,0,0,0,4.228,9.914c-.013-.13-.019-.257-.019-.387A3.98,3.98,0,0,1,4.276,8.8,1.606,1.606,0,1,0,1.122,8.2,7.068,7.068,0,0,0,1,9.53c0,.228.011.458.034.691a1.607,1.607,0,0,0,1.6,1.453A1.241,1.241,0,0,0,2.781,11.667Z" transform="translate(0 4.19)" fill="#484e56"/><path d="M8.078,23.814l-.407-1.519a1.608,1.608,0,0,0-3.106.833l.407,1.519a1.608,1.608,0,0,0,1.551,1.191,1.629,1.629,0,0,0,.416-.055A1.605,1.605,0,0,0,8.078,23.814Z" transform="translate(2.136 12.823)" fill="#484e56"/><path d="M13.141,42.705l-.407-1.518a1.608,1.608,0,0,0-3.106.833l.407,1.518a1.608,1.608,0,0,0,1.551,1.191A1.641,1.641,0,0,0,12,44.675,1.608,1.608,0,0,0,13.141,42.705Z" transform="translate(5.213 24.305)" fill="#484e56"/><path d="M6.813,19.089l-.407-1.518A1.608,1.608,0,1,0,3.3,18.4l.407,1.518a1.608,1.608,0,0,0,1.551,1.191,1.641,1.641,0,0,0,.418-.055A1.607,1.607,0,0,0,6.813,19.089Z" transform="translate(1.367 9.953)" fill="#484e56"/><path d="M5.223,7.594a1.629,1.629,0,0,0,.416-.055l1.519-.407a1.608,1.608,0,0,0-.833-3.106l-1.519.407a1.608,1.608,0,0,0,.416,3.161Z" transform="translate(1.592 2.411)" fill="#484e56"/><path d="M9.945,6.326a1.629,1.629,0,0,0,.416-.055l1.518-.407a1.608,1.608,0,0,0-.831-3.106l-1.518.407a1.608,1.608,0,0,0,.415,3.161Z" transform="translate(4.463 1.642)" fill="#484e56"/><path d="M11.875,37.982l-.407-1.519a1.608,1.608,0,0,0-3.106.833l.407,1.519a1.608,1.608,0,0,0,3.106-.833Z" transform="translate(4.443 21.435)" fill="#484e56"/><path d="M9.344,28.536l-.407-1.518a1.608,1.608,0,1,0-3.106.833l.407,1.518A1.608,1.608,0,0,0,7.789,30.56a1.629,1.629,0,0,0,.416-.055A1.609,1.609,0,0,0,9.344,28.536Z" transform="translate(2.905 15.694)" fill="#484e56"/><path d="M10.61,33.258,10.2,31.741a1.608,1.608,0,1,0-3.106.833L7.5,34.091a1.608,1.608,0,0,0,1.551,1.191,1.628,1.628,0,0,0,.416-.055A1.608,1.608,0,0,0,10.61,33.258Z" transform="translate(3.675 18.563)" fill="#484e56"/><path d="M56.934,16.436a1.6,1.6,0,0,0-1.969,1.137l-.407,1.518a1.608,1.608,0,0,0,1.137,1.969,1.632,1.632,0,0,0,.418.055,1.607,1.607,0,0,0,1.551-1.191l.407-1.518A1.61,1.61,0,0,0,56.934,16.436Z" transform="translate(32.518 9.954)" fill="#484e56"/><path d="M58.2,11.711a1.6,1.6,0,0,0-1.969,1.137l-.407,1.518a1.609,1.609,0,0,0,1.137,1.969,1.629,1.629,0,0,0,.416.055A1.607,1.607,0,0,0,58.926,15.2l.407-1.518A1.605,1.605,0,0,0,58.2,11.711Z" transform="translate(33.286 7.083)" fill="#484e56"/><path d="M60.131,8.2a1.608,1.608,0,1,0-3.158.606,3.716,3.716,0,0,1,.068.723,3.843,3.843,0,0,1-.019.384,1.61,1.61,0,0,0,1.447,1.754,1.241,1.241,0,0,0,.154.008,1.609,1.609,0,0,0,1.6-1.453q.034-.35.034-.69A6.927,6.927,0,0,0,60.131,8.2Z" transform="translate(34.001 4.191)" fill="#484e56"/><path d="M49.91,5.865l1.518.407a1.629,1.629,0,0,0,.416.055,1.608,1.608,0,0,0,.415-3.161l-1.518-.407a1.608,1.608,0,1,0-.831,3.106Z" transform="translate(29.002 1.642)" fill="#484e56"/><path d="M54.633,7.132l1.519.407a1.629,1.629,0,0,0,.416.055,1.608,1.608,0,0,0,.415-3.161l-1.519-.407a1.608,1.608,0,1,0-.831,3.106Z" transform="translate(31.872 2.411)" fill="#484e56"/><path d="M55.668,21.158A1.607,1.607,0,0,0,53.7,22.295l-.407,1.518a1.608,1.608,0,0,0,1.137,1.969,1.631,1.631,0,0,0,.418.055A1.607,1.607,0,0,0,56.4,24.645l.407-1.518A1.608,1.608,0,0,0,55.668,21.158Z" transform="translate(31.748 12.825)" fill="#484e56"/><path d="M71.261,71.947a1.61,1.61,0,0,0-1.969,1.137l-.307,1.145v-.277c0-.027-.014-.05-.016-.077V67.741c0-.027.016-.05.016-.077V66.092c0-.027-.014-.05-.016-.077V59.881c0-.027.016-.05.016-.077V58.232c0-.027-.014-.05-.016-.077V52.021c0-.027.016-.05.016-.077V50.372c0-.027-.014-.05-.016-.077V44.161c0-.027.016-.05.016-.077V42.511c0-.027-.014-.05-.016-.077V36.3c0-.027.016-.05.016-.077V34.646c0-.027-.014-.05-.016-.077V28.436c0-.027.016-.05.016-.077V26.785c0-.027-.014-.05-.016-.077V20.576c0-.027.016-.05.016-.077V18.925c0-.027-.014-.05-.016-.077V12.714c0-.027.016-.05.016-.077V11.063c0-.027-.014-.05-.016-.077v-3.9A7.089,7.089,0,0,0,61.886,0h-40.5a7.091,7.091,0,0,0-7.082,7.082V74.219L14,73.074a1.608,1.608,0,1,0-3.106.833l.407,1.518a1.607,1.607,0,0,0,3.008.265v3.815a1.535,1.535,0,0,0-.241.026A1.608,1.608,0,0,0,12.931,81.5l.407,1.518a1.593,1.593,0,0,0,.971,1.068v5.286a7.09,7.09,0,0,0,7.082,7.082h40.5a7.091,7.091,0,0,0,7.082-7.082V84.094a1.587,1.587,0,0,0,.987-1.074l.407-1.518a1.609,1.609,0,0,0-1.137-1.969,1.549,1.549,0,0,0-.257-.026v-3.8a.106.106,0,0,0,.006-.024,1.608,1.608,0,0,0,3.014-.256l.407-1.519A1.6,1.6,0,0,0,71.261,71.947ZM17.522,12.862H65.754V73.955H17.523V12.862Zm3.867-9.646h40.5a3.871,3.871,0,0,1,3.867,3.867V9.646H17.521V7.082A3.874,3.874,0,0,1,21.389,3.215Zm40.5,90.032h-40.5a3.871,3.871,0,0,1-3.867-3.867V77.171H65.754V89.381A3.872,3.872,0,0,1,61.886,93.248Z" transform="translate(5.982)" fill="#484e56"/><path d="M51.871,35.328A1.6,1.6,0,0,0,49.9,36.464l-.407,1.518a1.609,1.609,0,0,0,1.137,1.969,1.629,1.629,0,0,0,.416.055A1.607,1.607,0,0,0,52.6,38.815l.407-1.518A1.605,1.605,0,0,0,51.871,35.328Z" transform="translate(29.441 21.435)" fill="#484e56"/><path d="M50.606,40.05a1.6,1.6,0,0,0-1.969,1.137L48.23,42.7a1.608,1.608,0,0,0,1.137,1.969,1.632,1.632,0,0,0,.418.055,1.607,1.607,0,0,0,1.551-1.191l.407-1.518A1.61,1.61,0,0,0,50.606,40.05Z" transform="translate(28.672 24.304)" fill="#484e56"/><path d="M53.135,30.6a1.6,1.6,0,0,0-1.968,1.137l-.407,1.519a1.608,1.608,0,0,0,3.106.833l.407-1.519A1.61,1.61,0,0,0,53.135,30.6Z" transform="translate(30.21 18.563)" fill="#484e56"/><path d="M54.4,25.88a1.6,1.6,0,0,0-1.969,1.137l-.407,1.518A1.609,1.609,0,0,0,53.163,30.5a1.628,1.628,0,0,0,.416.055,1.607,1.607,0,0,0,1.551-1.191l.407-1.518A1.607,1.607,0,0,0,54.4,25.88Z" transform="translate(30.979 15.694)" fill="#484e56"/></g></svg>