<svg xmlns="http://www.w3.org/2000/svg" xmlns:xlink="http://www.w3.org/1999/xlink" width="283.007" height="325.939" viewBox="0 0 283.007 325.939"><defs><linearGradient id="a" x1="-0.518" y1="-0.815" x2="0.804" y2="0.992" gradientUnits="objectBoundingBox"><stop offset="0" stop-color="#485563"/><stop offset="1" stop-color="#29323c"/></linearGradient><clipPath id="b"><rect width="132.284" height="286.438" fill="url(#a)"/></clipPath><linearGradient id="c" x1="0.002" y1="0.5" x2="1.002" y2="0.5" gradientUnits="objectBoundingBox"><stop offset="0.01"/><stop offset="1" stop-opacity="0"/></linearGradient><linearGradient id="d" y1="0.499" x2="1.002" y2="0.499" gradientUnits="objectBoundingBox"><stop offset="0" stop-color="#ecc4d7"/><stop offset="0.42" stop-color="#efd4d1"/><stop offset="1" stop-color="#f2eac9"/></linearGradient><linearGradient id="e" x1="0.407" y1="0.5" x2="1.198" y2="0.5" xlink:href="#c"/><linearGradient id="f" x1="0.002" y1="5.829" x2="1" y2="5.829" xlink:href="#d"/><linearGradient id="g" x1="0.522" y1="11.172" x2="1.12" y2="11.172" xlink:href="#c"/><linearGradient id="h" x1="0" y1="6.018" x2="1" y2="6.018" xlink:href="#c"/><linearGradient id="i" x1="0.004" y1="44.821" x2="0.999" y2="44.821" xlink:href="#c"/><linearGradient id="j" x1="0.004" y1="48.599" x2="1" y2="48.599" xlink:href="#c"/><linearGradient id="k" x1="-0.003" y1="8.769" x2="0.997" y2="8.769" xlink:href="#d"/><linearGradient id="l" x1="0.004" y1="22.71" x2="0.995" y2="22.71" xlink:href="#d"/><linearGradient id="m" x1="0.008" y1="22.205" x2="1.007" y2="22.205" xlink:href="#d"/><linearGradient id="n" x1="0.002" y1="-9.539" x2="1" y2="-9.539" xlink:href="#d"/><linearGradient id="o" x1="-0.002" y1="-14.507" x2="0.999" y2="-14.507" xlink:href="#d"/><linearGradient id="p" x1="-0.001" y1="8.162" x2="0.997" y2="8.162" xlink:href="#d"/><linearGradient id="q" x1="0.987" y1="0.013" x2="-2.385" y2="3.184" gradientUnits="objectBoundingBox"><stop offset="0" stop-opacity="0"/><stop offset="0.99"/></linearGradient><linearGradient id="r" x1="0.483" y1="0.197" x2="0.579" y2="2.625" xlink:href="#q"/><linearGradient id="s" x1="0.461" y1="0.375" x2="1.103" y2="2.368" xlink:href="#q"/><linearGradient id="t" x1="0.34" y1="0.134" x2="1.062" y2="2.944" xlink:href="#q"/><linearGradient id="u" x1="0.28" y1="0.025" x2="1.461" y2="3.76" xlink:href="#q"/><linearGradient id="v" x1="1.24" y1="0.233" x2="-3.708" y2="2.164" xlink:href="#q"/><linearGradient id="w" x1="1.476" y1="0.067" x2="-6.862" y2="3.362" xlink:href="#q"/><linearGradient id="x" x1="0.47" y1="0.387" x2="1.095" y2="1.874" xlink:href="#q"/><linearGradient id="y" x1="0.459" y1="-0.244" x2="0.566" y2="2.557" gradientUnits="objectBoundingBox"><stop offset="0" stop-opacity="0"/><stop offset="0.86" stop-opacity="0.659"/><stop offset="0.99"/></linearGradient><linearGradient id="z" x1="0.535" y1="-1.399" x2="0.458" y2="2.584" xlink:href="#y"/><linearGradient id="aa" x1="0.252" y1="1.539" x2="1.252" y2="-2.372" xlink:href="#q"/></defs><g transform="translate(-46.372 -173.499)"><g transform="translate(114.537 213)" clip-path="url(#b)"><g transform="translate(-20.107 34.217)"><path d="M40.844,17.042C36.509,24.915,34.9,34.544,28.4,40.777c-3.309,3.193-7.586,5.124-11.451,7.611C8.984,53.509,2.542,61.412.58,70.661S1.665,90.418,9.219,96.095c6.471,4.86,15.4,5.912,21.319,11.445,11.01,10.243,7.484,31.608,20.613,38.955,6.589,3.687,15.11,1.961,21.348-2.311s10.635-10.625,14.875-16.861q11.288-16.508,22.575-32.984c3.515-5.124,7.088-10.39,8.406-16.449a24.648,24.648,0,0,0-6.444-22.156c-7.524-7.582-20.145-10.419-24.216-20.3-2.018-4.948-1.318-10.537-1.024-15.864C88.309-10.529,51-1.456,40.844,17.042Z" transform="translate(0 0)" fill="#cc71f8" opacity="0.2"/><path d="M1.259.026C1.71.179,4.586,5.291,4.586,5.291L3.327,5.046A3.637,3.637,0,0,0,0,2.688C0,2.749.252-.31,1.259.026Z" transform="translate(62.085 10.583)" fill="url(#c)"/><path d="M80.382,44.376s-6.656,1.667-7.838-1.089a1.878,1.878,0,0,1-.141-.466c-.614-3.4,1.227-18.175,1.227-18.175S57.965,13.856,51.221,15.7C45.515,17.257,17.4,46.369,8.66,55.486a5.361,5.361,0,0,1-6.048,1.2A4.433,4.433,0,0,1,.769,50.15L29.89,7.982,31.52,5.62,57.97,0S85.3,11.4,88.073,16.037,80.382,44.376,80.382,44.376Z" transform="translate(19.754 83.956)" fill="#cc71f8"/><path d="M31.041,42.209A14.1,14.1,0,0,1,29.3,49.617c-2.358,3.743-7.1,5.079-11.407,6.092a25.492,25.492,0,0,1-8.262,1.024c-2.791-.265-5.593-1.569-6.966-4.01a.11.11,0,0,0-.019-.029,13,13,0,0,1-1.222-5.039C.492,39.1-.438,30.385.223,21.831a60.253,60.253,0,0,1,.887-6.75c.127-.684.266-1.363.428-2.042C2.2,10.136,3.7,5.4,6.188,2.509a6.125,6.125,0,0,1,4.95-2.5c2.446.147,4.919.38,7.362.7,1.774.267,3.665.585,5.033,1.786,2.3,1.992,2.271,5.536,2.417,8.61C26.449,21.62,31.134,31.679,31.041,42.209Z" transform="translate(49.033 37.392)" fill="#cc71f8"/><path d="M1.518,7c.059,1.346,5.085,4.39,6.132,3.875,1.728.214,2.306-.238,2.6-1.469a7.834,7.834,0,0,0-.235-5.229,6.465,6.465,0,0,0-3.1-2.92C5.547.6,1.321-.919.2.772-.652,2.053,1.481,5.4,1.518,7Z" transform="translate(57.499 31.043)" fill="url(#d)"/><ellipse cx="3.88" cy="4.233" rx="3.88" ry="4.233" transform="translate(61.732 14.11)" fill="url(#e)"/><path d="M12.792,1.68a9.306,9.306,0,0,1,1.1,1.871c1.354,2.753,2.705,5.476,4.059,8.228a7.009,7.009,0,0,1,1.038,4.214,4.48,4.48,0,0,1-1.117,2.17,7.54,7.54,0,0,1-3.171,2.2,9.066,9.066,0,0,1-5.9-.088A16.489,16.489,0,0,1,3.64,17.225,10.9,10.9,0,0,1,.527,13.537C-.049,12.249-.135,7.3.183,6.306,1.042,3.35,3.23,2,5.851.889,8.27-.105,10.862-.749,12.792,1.68Z" transform="translate(52.561 13.405)" fill="url(#f)"/><path d="M14.175,1.919A7.307,7.307,0,0,1,17.863.109a5.227,5.227,0,0,1,3.8.613,3.312,3.312,0,0,1,1.552,3.359c-.47,2.306-3.472,3.036-4.807,4.993a15.889,15.889,0,0,0-1.2,2.628c-.849,1.693-2.721,3.036-4.593,2.628-1-.235-2.136-.877-2.938-.235-.614.5-.206,1.461-.438,2.22-1.99,6.776,3.394,10.249,3.2,10.662-.323.8-7.227.992-8.076.845a4.024,4.024,0,0,1-2.136-1.314C.568,24.845-.543,22.3.275,20.085a8.617,8.617,0,0,0,.937-2.6,6.549,6.549,0,0,0-.732-2.4A7.006,7.006,0,0,1,3.5,6.736,14.5,14.5,0,0,1,6.214,5.669c1.522-.466,3.044-.848,4.564-1.285C12.244,3.934,13.064,2.911,14.175,1.919Z" transform="translate(44.447 2.822)" fill="#3f3d56"/><path d="M7.554,3.7c.689,2.565-.4,5.1-2.439,5.7S.9,8.387.206,5.823s.4-5.1,2.441-5.7S6.865,1.132,7.554,3.7Z" transform="translate(50.797 24.34)" fill="url(#g)"/><path d="M8.113,21.679l-3.6.9C-5.615,5.32,4.344.433,5.205.029,5.234.029,5.234,0,5.263,0A5.772,5.772,0,0,0,3.508,1.908C-.233,8.4,8.113,21.679,8.113,21.679Z" transform="translate(46.917 4.939)" fill="url(#h)"/><path d="M7.408,1.851l-.376.2L4.9,3.175C2.514,1.75.933,1.822,0,2.133A5.107,5.107,0,0,1,.933.979a6.837,6.837,0,0,1,.862-.7h0C4.2-.852,7.408,1.851,7.408,1.851Z" transform="translate(50.797 4.233)" fill="url(#i)"/><path d="M7.055,1.95,4.918,3.175C2.522,1.626.936,1.7,0,2.043A5.5,5.5,0,0,1,.936.788C1.107.634,1.31.449,1.513.3h0C3.705-.806,6.536,1.492,7.055,1.95Z" transform="translate(50.797 4.233)" fill="url(#j)"/><path d="M36.945,11.611a3.359,3.359,0,0,1-.147,2.648c-.534,1.531-1.563,5-2.774,8.1-.934,2.377-1.977,4.526-2.988,5.388-.053.046-.1.089-.157.126-1.894-5.882-5.335-5.047-8.955-5.842-3.244-.706-10.727-1.383-14-1.942C2.662,19.2-.141,19.673.005,15.054.091,11.611,2.868,8.7,5.965,7.2s6.576-1.971,9.908-2.855c3.449-.91,6.605-3.355,10-4.206,2.806-.677,4.588,1.235,5.869,4.058a1.694,1.694,0,0,1,.205,1.061,1.8,1.8,0,0,1-.672.881c-4.407,3.835-6.632,3.15-12.154,4.945,4.711-.5,11.089-2.372,17.911-2.753q1.192-.073,2.4-.073C40.071,8.256,36.643,11.022,36.945,11.611Z" transform="translate(17.991 31.043)" fill="#cc71f8"/><path d="M43.017,6.61a2.44,2.44,0,0,1-.873,1.322c-3.9,3.818-7.82,7.637-11.716,11.426-6.4,6.259-12.791,12.485-19.186,18.744-2.473,2.413-5.35,4.993-8.81,4.934C1.7,39.834-.185,34.135.6,30.9c.13-.536-.868-2.183-.531-2.631.069-.1,2.741-.351,3.54-.869,1.621-1.057,3.537-1.9,4.875-2.789A120.275,120.275,0,0,0,27.376,9.136c2.877-2.909,5.812-6.079,9.357-7.9A14.749,14.749,0,0,1,38.251.56,13.2,13.2,0,0,1,40.138,0Q41.4,2.6,42.667,5.2A2.422,2.422,0,0,1,43.017,6.61Z" transform="translate(70.551 10.23)" fill="#cc71f8"/><path d="M2.559,8.365c.179-1.713.06-3.545.813-5.083.176-.379.563-.814.978-.7.358.088.506.53.593.87.271,1.453.03,3.052.772,4.359C7.437,5.459,9.128,3.078,10.861.726c.3-.408.71-.843,1.186-.7-.089,2.206-1.276,4.211-2.405,6.1a1.09,1.09,0,0,1,1.625.438,2.089,2.089,0,0,1-.179,1.856,1.256,1.256,0,0,1,1.675.236,1.194,1.194,0,0,1-.131,1.652l3.946-1.132c.03.7-.653,1.161-1.276,1.509-4.45,2.527-8.962,5.086-13.946,6.247C.436,15.508-.691,13.854.544,12.518A6.68,6.68,0,0,0,2.559,8.365Z" transform="translate(109.354 0)" fill="url(#k)"/><path d="M.065,3.084a.6.6,0,0,0,.2.764.932.932,0,0,0,.483.084,4.043,4.043,0,0,0,2.122-.67A4.891,4.891,0,0,0,.942,5.413a.388.388,0,0,0,0,.39.485.485,0,0,0,.284.168c.933.168,1.783-.53,2.634-.976.538-.28,1.1-.476,1.641-.782A2.3,2.3,0,0,0,6.661,2.9a.593.593,0,0,0-.14-.642.675.675,0,0,0-.651.028c-.623.222-1.246.446-1.869.7A3.091,3.091,0,0,0,5.33.666.717.717,0,0,0,5.248.248c-.517-.726-2.267.336-2.776.7-.339.255-.651.558-.99.838C1.027,2.136.319,2.526.065,3.084Z" transform="translate(115.704 6.35)" fill="url(#l)"/><path d="M1.064,0c-.41,0-.646.465-.8.87a5.619,5.619,0,0,0-.236,2.2A2.6,2.6,0,0,0,.56,4.491C1.587,5.7,3.175,4.207,3.175,2.909,3.18,2.05,1.973-.031,1.064,0Z" transform="translate(48.328 26.104)" fill="url(#m)"/><path d="M.35,6.276A12.081,12.081,0,0,0,0,8.954a.912.912,0,0,0,.117.484.952.952,0,0,0,.463.343,8.616,8.616,0,0,0,6.413.341,1.165,1.165,0,0,0,.638-.4.975.975,0,0,0,0-.97,8.193,8.193,0,0,0-.553-.824,5.132,5.132,0,0,1-.434-3.3A39.009,39.009,0,0,1,7.311.551C7.4.182,2.323-.387,1.656.382c-.434.484-.434,1.737-.551,2.34C.872,3.908.61,5.08.35,6.276Z" transform="translate(91.717 128.051)" fill="url(#n)"/><path d="M5.006.464A6.784,6.784,0,0,0,3.176,0,1.753,1.753,0,0,0,1.548.754a1.854,1.854,0,0,0-.233.778C.909,3.7.5,5.866.065,8.06a1.573,1.573,0,0,0,0,.9,1.54,1.54,0,0,0,1.018.809,13.15,13.15,0,0,0,4.27.548l14.851.264a1.247,1.247,0,0,0,.639-.116c.53-.29.321-1.1-.029-1.561-1.162-1.674-3.182-2.484-5.026-3.38a11.857,11.857,0,0,1-2.708-1.7c-.7-.635-1.132-1.79-1.947-2.283a4.251,4.251,0,0,0-2.092-.287A17.593,17.593,0,0,1,5.006.464Z" transform="translate(88.895 133.695)" fill="#cc71f8"/><path d="M4.864,4.7a33.624,33.624,0,0,1,3.78.787,19.038,19.038,0,0,0,4.023.095c2.039-.126,4.11-.221,6.151-.345a4.577,4.577,0,0,0,2.43-.575,1.925,1.925,0,0,0,.856-2.236c-.383-.879-1.477-1.1-2.4-1.164C14.445.852,9.12.16,3.825,0,2.256-.03-.169.347.009,2.614.279,5.172,3.239,4.6,4.864,4.7Z" transform="translate(87.836 142.514)" fill="#cc71f8"/><path d="M.088,1.457a1.042,1.042,0,0,1,.4-1.3A1.151,1.151,0,0,1,1.884.338a2.48,2.48,0,0,1,.4,1.575A5.491,5.491,0,0,0,3.528,4.939" transform="translate(100.183 133.695)" fill="#cc71f8"/><path d="M5.067,0A35.207,35.207,0,0,1,0,6.169C1.087,7.988,3.693,8.534,5.706,7.793A8.962,8.962,0,0,0,10.23,3.5C8.026,2.9,6.782,1.416,5.067,0" transform="translate(15.521 137.222)" fill="url(#o)"/><path d="M21.9,3.326A7.4,7.4,0,0,1,20.86,4.708c-1.639,1.8-3.276,3.633-4.915,5.433A5.42,5.42,0,0,1,13.868,11.8a5.523,5.523,0,0,1-2.309.143c-3-.212-6-.445-9.027-.658l-.918-.069a2.258,2.258,0,0,1-.993-.231c-.849-.493-.7-1.745-.294-2.615A7.543,7.543,0,0,1,4.918,4.419c1.4-.435,2.937-.464,4.213-1.1a11.919,11.919,0,0,0,2.632-2.121C12.933.091,13.1-.317,14.628.264c.553.175,7.577,1.991,7.577,1.575a2.344,2.344,0,0,1-.31,1.488Z" transform="translate(2.469 141.455)" fill="#cc71f8"/><path d="M4.687,4.1a69.584,69.584,0,0,0,9.588.831,6.36,6.36,0,0,0,2.494-.393A2.574,2.574,0,0,0,18.331,2.6a1.019,1.019,0,0,0-.492-1.124,1.4,1.4,0,0,0-.349-.061C12.887.961,8.309.477,3.7.031,2.138-.122.081.241,0,2.335-.073,4.254,3.365,3.922,4.687,4.1Z" transform="translate(1.058 150.627)" fill="#cc71f8"/><path d="M0,7.9A2.279,2.279,0,0,0,2.164,6.445a23.343,23.343,0,0,0,.8-2.661A5.871,5.871,0,0,1,9.276.058a.5.5,0,0,1,.381.2c.088.176-.059.349-.205.495A5.648,5.648,0,0,1,7.2,2.07a9.35,9.35,0,0,1,5.143-.349,1.44,1.44,0,0,1-.731.758c-1.334.814-2.668,1.6-4,2.419a8.6,8.6,0,0,1,4.442-1.488c.176.322-.147.671-.438.876C10.594,5.045,9.6,5.8,8.577,6.559A5.524,5.524,0,0,1,11,5.774c-.534,1.107-1.958,1.4-2.689,2.395A9.206,9.206,0,0,0,7.7,9.393a6.485,6.485,0,0,1-3.185,3.177A.822.822,0,0,1,3.7,12.6a.846.846,0,0,1-.235-.378A9.026,9.026,0,0,0,0,7.9Z" transform="translate(46.564 23.987)" fill="url(#p)"/><path d="M13.834,0a62.394,62.394,0,0,1,.29,7.945c-.242,2.228,2.943,24.49,3.193,31.667S15.829,46.3,15.829,46.3c-4.4,2.228-14.693,1.642-14.693,1.642L0,49.9a52.871,52.871,0,0,0,16.231-1.145A68.274,68.274,0,0,0,30.69,43.631l-1.953-.821s-9.124,3.2-12.913,3.476" transform="translate(50.444 41.978)" fill="none" stroke="#fff" stroke-miterlimit="10" stroke-width="1.1"/><path d="M1.135,0S-.852,2.978.432,5.722a4.468,4.468,0,0,0,3.8,2.744" transform="translate(107.591 10.583)" fill="none" stroke="#fff" stroke-miterlimit="10" stroke-width="0.96"/><path d="M48.328,40.608c-1.449,3.369-14.279,2.746-14.839,2.717a.109.109,0,0,0-.019-.029,12.846,12.846,0,0,1-1.227-5.016c-.934-8.516-1.868-17.192-1.2-25.708-.053.045-.1.088-.157.125-1.894-5.828-5.336-5-8.956-5.788-3.244-.7-10.728-1.371-14-1.924C2.663,4.112-.141,4.577.005,0c0,0,24.455,4.157,29.065,4.979a11.443,11.443,0,0,1,2.86.873,8.23,8.23,0,0,1,2.1,1.381,14.8,14.8,0,0,1,2.615,3.492c1.478,2.464,1.809,20.194,2.961,25.939S48.328,40.608,48.328,40.608Z" transform="translate(17.991 46.564)" fill="url(#q)"/><path d="M0,8.113A13.56,13.56,0,0,1,4.494,6.06,96.756,96.756,0,0,0,18.428.3a2.4,2.4,0,0,1,.778-.288c1.092-.125,1.7,1.166,1.959,2.2-1.14.26-1.929,1.228-2.825,1.963C15.729,6.3,12.423,6.208,9.316,7.057a16.826,16.826,0,0,1-3.757.755l-2.85.153C2.19,7.994.376,7.8,0,8.113Z" transform="translate(28.573 34.923)" fill="url(#r)"/><path d="M39.156,0l-.107,3.455S11.482,29.53.63,28.546c-2.161-.2,1.956-1.47,1.7-1.749-.029-.035,3.555-.861,3.555-.861,1.628-1.047,3.553-1.884,4.9-2.764A120.48,120.48,0,0,0,29.759,7.828C32.648,4.944,35.6,1.8,39.156,0Z" transform="translate(67.729 11.641)" fill="url(#s)"/><path d="M0,3.025s3.744,3.116,7.888,2.55,1.525-.319,1.525-.319S3.744,2.851,3.744.61,0,3.025,0,3.025Z" transform="translate(54.677 36.687)" fill="#cc71f8"/><path d="M5.227,3.412S6,5.707,2.182,7.269.717,7.746.717,7.746,3.816,2.388,2.6.453,5.227,3.412,5.227,3.412Z" transform="translate(65.26 34.923)" fill="#cc71f8"/><path d="M4.233,3.262s.086.668-2.689,2.367L0,6.35S2.781,2.278,1.543.432,4.233,3.262,4.233,3.262Z" transform="translate(66.318 35.628)" fill="url(#t)"/><path d="M0,3.035S3.591,6.068,7.589,5.594c1.359-.162,1.583-.5,1.583-.5S3.607,2.861,3.607.612,0,3.035,0,3.035Z" transform="translate(55.03 36.687)" fill="url(#u)"/><path d="M26.083,9.984c-.247,3.487-1.989,20.353-1.989,20.353l-2.641-.046a1.877,1.877,0,0,1-.142-.467c-.617-3.409,1.235-18.218,1.235-18.218S6.785.792,0,2.642c0,0,3.986-3.085,7.214-2.588s17.14,6.454,17.14,6.454S26.33,6.508,26.083,9.984Z" transform="translate(71.257 97.008)" fill="url(#v)"/><path d="M39.861,0C37.379.987,29.93,9.626,23.717,17.032,17.9,23.968,2.08,43.107.1,45.506A4.342,4.342,0,0,1,0,44.59,4.394,4.394,0,0,1,.773,42.1L30.07.061A70.938,70.938,0,0,0,39.861,0Z" transform="translate(19.754 92.069)" fill="url(#w)"/><path d="M19.049.05a7.475,7.475,0,0,1-1.017,1.4c-1.609,1.824-3.215,3.676-4.823,5.5a5.35,5.35,0,0,1-2.038,1.677A5.262,5.262,0,0,1,8.9,8.767C5.96,8.552,3.015,8.316.046,8.1a2.491,2.491,0,0,1-.034-.724,1.635,1.635,0,0,1,.293-.885,1.5,1.5,0,0,1,.569-.41A5.925,5.925,0,0,1,3.29,5.714l5.6-.075a4.476,4.476,0,0,0,2.1-.36,4.757,4.757,0,0,0,.859-.62l2.1-1.768A17.128,17.128,0,0,1,17.789.208,1.8,1.8,0,0,1,19.049.05Z" transform="translate(5.291 144.983)" fill="url(#x)"/><path d="M1.721.518A.749.749,0,0,1,2.56.011,5.135,5.135,0,0,1,4.317.278,5.375,5.375,0,0,1,6.958,3.513,7.468,7.468,0,0,0,8.72,6.527a7.372,7.372,0,0,0,1.775.977,26.437,26.437,0,0,1,3.8,2.1c.087.059.185.144.161.246s-.1.12-.177.149a4.87,4.87,0,0,1-1.653.227A30.152,30.152,0,0,1,9.341,10Q6.514,9.688,3.7,9.252a13.683,13.683,0,0,1-2.618-.6,1.843,1.843,0,0,1-.658-.368,1.553,1.553,0,0,1-.409-.9A5.536,5.536,0,0,1,.175,5.537c.182-.918.33-1.85.528-2.76A5.8,5.8,0,0,1,1.721.518Z" transform="translate(89.247 134.753)" fill="url(#y)"/><path d="M2.488.2A4.038,4.038,0,0,0,1.19,0,1.333,1.333,0,0,0,.106.642,1.284,1.284,0,0,0,.584,2.186a2.76,2.76,0,0,0,1.664.42,11.072,11.072,0,0,1,1.744.013,15.981,15.981,0,0,1,1.773.539,9.7,9.7,0,0,0,2.011.27c3.45.2,7.026.216,10.22-1.119a.559.559,0,0,0,.328-.251.4.4,0,0,0-.211-.485,1.173,1.173,0,0,0-.563-.086c-2.3.04-4.62.2-6.917.046A45.164,45.164,0,0,1,2.488.2Z" transform="translate(88.895 144.277)" fill="url(#z)"/><path d="M3.706,4.2A7.333,7.333,0,0,0,6.965,1.963a.288.288,0,0,0,.09-.19.28.28,0,0,0-.123-.187A7.239,7.239,0,0,0,3.711.04a1.046,1.046,0,0,0-.635.02,1.364,1.364,0,0,0-.5.52,11.318,11.318,0,0,1-2.293,2.5c-.141.115-.3.263-.283.453a.5.5,0,0,0,.2.307,3.094,3.094,0,0,0,3.38.433" transform="translate(12.346 142.161)" fill="url(#aa)"/><g transform="translate(20.853 44.832)"><path d="M2.048,7.188,16.049,0,15.42,12.918s-1.505,4.3-3.513,2.7,2.31-4.3,2.31-4.3l.1-6.2-10.739,5.2.2,7.5s-1.6,5.1-3.312,3.4,1.8-5.1,1.8-5.1Z" transform="translate(77.613 0)" fill="#cc71f8"/><path d="M4.167,11.544,7.025,0s4.617,3.7,3.916,6.39a4.994,4.994,0,0,1-3.312,3.4s1.4-2.3,1.1-3.1a9.076,9.076,0,0,0-1.957-2.2L4.523,13.9S1.512,18.5.208,15.2,4.167,11.544,4.167,11.544Z" transform="translate(0 11.61)" fill="#cc71f8"/></g></g></g><g transform="translate(45.377 173.499)"><path d="M44.511,49A19.515,19.515,0,1,0,64.025,68.515,19.534,19.534,0,0,0,44.511,49Zm0,29.272a9.757,9.757,0,1,1,9.757-9.757A9.767,9.767,0,0,1,44.511,78.272Z" transform="translate(93.092 190.055)" fill="#3f4852"/><path d="M29.875,12.757H49.389a4.879,4.879,0,0,0,0-9.757H29.875a4.879,4.879,0,0,0,0,9.757Z" transform="translate(93.092 11.636)" fill="#3f4852"/><path d="M36.875,12.757h4.879a4.879,4.879,0,1,0,0-9.757H36.875a4.879,4.879,0,1,0,0,9.757Z" transform="translate(120.243 11.636)" fill="#3f4852"/><path d="M12.807,19.881l-1.234-4.605A4.879,4.879,0,0,0,2.147,17.8l1.234,4.605a4.879,4.879,0,0,0,4.708,3.615,4.979,4.979,0,0,0,1.268-.166A4.885,4.885,0,0,0,12.807,19.881Z" transform="translate(3.819 45.21)" fill="#3f4852"/><path d="M6.415,21.374a4.876,4.876,0,0,0,4.391-5.318c-.039-.4-.059-.781-.059-1.176a12.076,12.076,0,0,1,.2-2.191A4.874,4.874,0,1,0,1.38,10.85,21.448,21.448,0,0,0,1,14.89c0,.693.034,1.39.1,2.1A4.876,4.876,0,0,0,5.947,21.4,3.767,3.767,0,0,0,6.415,21.374Z" transform="translate(0 26.745)" fill="#3f4852"/><path d="M15.337,29.334,14.1,24.724a4.879,4.879,0,0,0-9.426,2.527l1.234,4.61a4.881,4.881,0,0,0,4.708,3.615,4.942,4.942,0,0,0,1.264-.166A4.872,4.872,0,0,0,15.337,29.334Z" transform="translate(13.632 81.841)" fill="#3f4852"/><path d="M20.4,48.222l-1.234-4.605A4.879,4.879,0,1,0,9.74,46.144l1.234,4.605a4.879,4.879,0,0,0,4.708,3.615,4.979,4.979,0,0,0,1.268-.166A4.881,4.881,0,0,0,20.4,48.222Z" transform="translate(33.27 155.121)" fill="#3f4852"/><path d="M14.072,24.606,12.838,20a4.879,4.879,0,1,0-9.426,2.527l1.234,4.605a4.879,4.879,0,0,0,4.708,3.615,4.979,4.979,0,0,0,1.268-.166A4.876,4.876,0,0,0,14.072,24.606Z" transform="translate(8.726 63.522)" fill="#3f4852"/><path d="M8.495,14.971a4.942,4.942,0,0,0,1.264-.166l4.61-1.234a4.879,4.879,0,0,0-2.527-9.426L7.231,5.379a4.879,4.879,0,0,0,1.264,9.591Z" transform="translate(10.161 15.389)" fill="#3f4852"/><path d="M13.214,13.7a4.942,4.942,0,0,0,1.264-.166L19.083,12.3a4.879,4.879,0,0,0-2.522-9.426L11.955,4.11A4.879,4.879,0,0,0,13.214,13.7Z" transform="translate(28.484 10.477)" fill="#3f4852"/><path d="M19.134,43.5,17.9,38.889a4.879,4.879,0,1,0-9.426,2.527l1.234,4.61A4.879,4.879,0,0,0,19.134,43.5Z" transform="translate(28.359 136.802)" fill="#3f4852"/><path d="M16.6,34.05l-1.234-4.605a4.879,4.879,0,0,0-9.426,2.527l1.234,4.605a4.881,4.881,0,0,0,4.708,3.615,4.942,4.942,0,0,0,1.264-.166A4.881,4.881,0,0,0,16.6,34.05Z" transform="translate(18.543 100.167)" fill="#3f4852"/><path d="M17.869,38.776l-1.234-4.605A4.879,4.879,0,1,0,7.209,36.7L8.443,41.3a4.881,4.881,0,0,0,4.708,3.615,4.942,4.942,0,0,0,1.264-.166A4.879,4.879,0,0,0,17.869,38.776Z" transform="translate(23.453 118.478)" fill="#3f4852"/><path d="M61.881,16.551A4.861,4.861,0,0,0,55.9,20L54.67,24.606a4.881,4.881,0,0,0,3.449,5.976,4.951,4.951,0,0,0,1.268.166A4.875,4.875,0,0,0,64.1,27.133l1.234-4.605A4.886,4.886,0,0,0,61.881,16.551Z" transform="translate(207.538 63.527)" fill="#3f4852"/><path d="M63.145,11.827a4.866,4.866,0,0,0-5.976,3.449l-1.234,4.605a4.882,4.882,0,0,0,3.449,5.976,4.942,4.942,0,0,0,1.264.166,4.876,4.876,0,0,0,4.708-3.615L66.589,17.8A4.872,4.872,0,0,0,63.145,11.827Z" transform="translate(212.441 45.205)" fill="#3f4852"/><path d="M66.614,10.85a4.878,4.878,0,1,0-9.582,1.839,11.277,11.277,0,0,1,.2,2.2,11.666,11.666,0,0,1-.059,1.166,4.884,4.884,0,0,0,4.391,5.323,3.766,3.766,0,0,0,.468.024,4.884,4.884,0,0,0,4.854-4.41q.1-1.061.1-2.093A21.02,21.02,0,0,0,66.614,10.85Z" transform="translate(217.008 26.75)" fill="#3f4852"/><path d="M52.337,12.3l4.605,1.234a4.942,4.942,0,0,0,1.264.166A4.879,4.879,0,0,0,59.464,4.11L54.859,2.875A4.879,4.879,0,1,0,52.337,12.3Z" transform="translate(185.098 10.477)" fill="#3f4852"/><path d="M57.06,13.569,61.67,14.8a4.942,4.942,0,0,0,1.264.166,4.879,4.879,0,0,0,1.259-9.591l-4.61-1.234a4.879,4.879,0,1,0-2.522,9.426Z" transform="translate(203.417 15.39)" fill="#3f4852"/><path d="M60.615,21.27a4.876,4.876,0,0,0-5.976,3.449L53.4,29.325A4.881,4.881,0,0,0,56.854,35.3a4.951,4.951,0,0,0,1.268.166,4.875,4.875,0,0,0,4.708-3.615l1.234-4.605A4.88,4.88,0,0,0,60.615,21.27Z" transform="translate(202.628 81.85)" fill="#3f4852"/><path d="M194.19,218.325a4.885,4.885,0,0,0-5.976,3.449l-.932,3.474v-.839c0-.083-.044-.151-.049-.234V205.563c0-.083.049-.151.049-.234v-4.771c0-.083-.044-.151-.049-.234V181.711c0-.083.049-.151.049-.234v-4.771c0-.083-.044-.151-.049-.234V157.859c0-.083.049-.151.049-.234v-4.771c0-.083-.044-.151-.049-.234V134.007c0-.083.049-.151.049-.234V129c0-.083-.044-.151-.049-.234V110.155c0-.083.049-.151.049-.234v-4.786c0-.083-.044-.151-.049-.234V86.289c0-.083.049-.151.049-.234V81.279c0-.083-.044-.151-.049-.234V62.437c0-.083.049-.151.049-.234V57.427c0-.083-.044-.151-.049-.234V38.581c0-.083.049-.151.049-.234V33.57c0-.083-.044-.151-.049-.234V21.491A21.511,21.511,0,0,0,165.743,0H42.854A21.518,21.518,0,0,0,21.364,21.491V225.219l-.932-3.474a4.879,4.879,0,1,0-9.426,2.527l1.234,4.605a4.876,4.876,0,0,0,9.128.8V241.26a4.659,4.659,0,0,0-.732.078,4.88,4.88,0,0,0-3.449,5.976l1.234,4.605a4.834,4.834,0,0,0,2.947,3.239V271.2a21.514,21.514,0,0,0,21.491,21.491H165.743A21.518,21.518,0,0,0,187.233,271.2V255.184a4.817,4.817,0,0,0,3-3.259l1.234-4.605a4.882,4.882,0,0,0-3.449-5.976,4.7,4.7,0,0,0-.781-.078V229.732a.322.322,0,0,0,.02-.073,4.881,4.881,0,0,0,9.147-.776l1.234-4.61A4.852,4.852,0,0,0,194.19,218.325ZM31.121,39.029h146.36V224.419H31.121V39.029ZM42.854,9.757H165.743a11.747,11.747,0,0,1,11.733,11.733v7.781H31.116V21.491A11.755,11.755,0,0,1,42.854,9.757ZM165.743,282.963H42.854A11.747,11.747,0,0,1,31.121,271.23V234.176h146.36V271.23A11.748,11.748,0,0,1,165.743,282.963Z" transform="translate(38.18)" fill="#3f4852"/><path d="M56.818,35.444a4.858,4.858,0,0,0-5.976,3.449L49.607,43.5a4.882,4.882,0,0,0,3.449,5.976,4.942,4.942,0,0,0,1.264.166,4.876,4.876,0,0,0,4.708-3.615l1.234-4.605A4.871,4.871,0,0,0,56.818,35.444Z" transform="translate(187.901 136.802)" fill="#3f4852"/><path d="M55.553,40.165a4.858,4.858,0,0,0-5.976,3.449L48.342,48.22A4.881,4.881,0,0,0,51.792,54.2a4.952,4.952,0,0,0,1.268.166,4.875,4.875,0,0,0,4.708-3.615L59,46.142A4.885,4.885,0,0,0,55.553,40.165Z" transform="translate(182.994 155.118)" fill="#3f4852"/><path d="M58.079,30.722a4.854,4.854,0,0,0-5.971,3.449l-1.234,4.61A4.879,4.879,0,0,0,60.3,41.308l1.234-4.61A4.885,4.885,0,0,0,58.079,30.722Z" transform="translate(192.811 118.478)" fill="#3f4852"/><path d="M59.349,25.995a4.87,4.87,0,0,0-5.976,3.449l-1.234,4.605a4.882,4.882,0,0,0,3.449,5.976,4.942,4.942,0,0,0,1.264.166,4.876,4.876,0,0,0,4.708-3.615l1.234-4.605A4.876,4.876,0,0,0,59.349,25.995Z" transform="translate(197.718 100.163)" fill="#3f4852"/></g></g></svg>