<svg xmlns="http://www.w3.org/2000/svg" width="240" height="237.485" viewBox="0 0 240 237.485"><g transform="translate(-68 -221.499)"><g transform="translate(71.377 221.499)"><path d="M40.83,49A15.834,15.834,0,1,0,56.664,64.834,15.85,15.85,0,0,0,40.83,49Zm0,23.751a7.917,7.917,0,1,1,7.917-7.917A7.925,7.925,0,0,1,40.83,72.751Z" transform="translate(71.007 144.966)" fill="#484e56"/><path d="M28.954,10.917H44.788a3.958,3.958,0,1,0,0-7.917H28.954a3.958,3.958,0,1,0,0,7.917Z" transform="translate(71.007 8.875)" fill="#484e56"/><path d="M35.954,10.917h3.958a3.958,3.958,0,0,0,0-7.917H35.954a3.958,3.958,0,1,0,0,7.917Z" transform="translate(91.716 8.875)" fill="#484e56"/><path d="M10.765,18.33l-1-3.737a3.959,3.959,0,0,0-7.648,2.051l1,3.737a3.959,3.959,0,0,0,3.82,2.933,4.04,4.04,0,0,0,1.029-.135A3.963,3.963,0,0,0,10.765,18.33Z" transform="translate(2.913 34.484)" fill="#484e56"/><path d="M5.393,18.643a3.956,3.956,0,0,0,3.563-4.315c-.032-.321-.048-.633-.048-.954A9.8,9.8,0,0,1,9.074,11.6,3.954,3.954,0,1,0,1.308,10.1,17.4,17.4,0,0,0,1,13.382c0,.562.028,1.128.083,1.7a3.956,3.956,0,0,0,3.935,3.578A3.056,3.056,0,0,0,5.393,18.643Z" transform="translate(0 20.4)" fill="#484e56"/><path d="M13.295,27.781l-1-3.741a3.959,3.959,0,0,0-7.648,2.05l1,3.741a3.96,3.96,0,0,0,3.82,2.933,4.01,4.01,0,0,0,1.025-.135A3.953,3.953,0,0,0,13.295,27.781Z" transform="translate(10.398 62.425)" fill="#484e56"/><path d="M18.358,46.67l-1-3.737a3.959,3.959,0,0,0-7.648,2.05l1,3.737a3.959,3.959,0,0,0,3.82,2.933,4.04,4.04,0,0,0,1.029-.135A3.96,3.96,0,0,0,18.358,46.67Z" transform="translate(25.377 118.32)" fill="#484e56"/><path d="M12.03,23.054l-1-3.737a3.959,3.959,0,1,0-7.648,2.05l1,3.737A3.959,3.959,0,0,0,8.2,28.038,4.04,4.04,0,0,0,9.231,27.9,3.957,3.957,0,0,0,12.03,23.054Z" transform="translate(6.656 48.452)" fill="#484e56"/><path d="M7.574,12.9A4.01,4.01,0,0,0,8.6,12.761l3.741-1a3.959,3.959,0,0,0-2.05-7.648l-3.741,1A3.959,3.959,0,0,0,7.574,12.9Z" transform="translate(7.75 11.738)" fill="#484e56"/><path d="M12.294,11.627a4.01,4.01,0,0,0,1.025-.135l3.737-1A3.958,3.958,0,0,0,15.01,2.843l-3.737,1a3.959,3.959,0,0,0,1.021,7.782Z" transform="translate(21.726 7.992)" fill="#484e56"/><path d="M17.092,41.947l-1-3.741a3.959,3.959,0,0,0-7.648,2.05l1,3.741a3.959,3.959,0,0,0,7.648-2.05Z" transform="translate(21.631 104.347)" fill="#484e56"/><path d="M14.561,32.5l-1-3.737a3.959,3.959,0,1,0-7.648,2.05l1,3.737a3.96,3.96,0,0,0,3.82,2.933,4.01,4.01,0,0,0,1.025-.135A3.961,3.961,0,0,0,14.561,32.5Z" transform="translate(14.144 76.403)" fill="#484e56"/><path d="M15.827,37.224l-1-3.737a3.959,3.959,0,1,0-7.648,2.05l1,3.737A3.96,3.96,0,0,0,12,42.208a4.01,4.01,0,0,0,1.025-.135A3.959,3.959,0,0,0,15.827,37.224Z" transform="translate(17.889 90.37)" fill="#484e56"/><path d="M60.489,16.519a3.944,3.944,0,0,0-4.849,2.8l-1,3.737a3.96,3.96,0,0,0,2.8,4.849,4.017,4.017,0,0,0,1.029.135,3.956,3.956,0,0,0,3.82-2.933l1-3.737A3.965,3.965,0,0,0,60.489,16.519Z" transform="translate(158.302 48.456)" fill="#484e56"/><path d="M61.753,11.794a3.948,3.948,0,0,0-4.849,2.8l-1,3.737a3.961,3.961,0,0,0,2.8,4.849,4.01,4.01,0,0,0,1.025.135,3.957,3.957,0,0,0,3.82-2.933l1-3.737A3.953,3.953,0,0,0,61.753,11.794Z" transform="translate(162.041 34.48)" fill="#484e56"/><path d="M64.79,10.1A3.958,3.958,0,1,0,57.015,11.6a9.149,9.149,0,0,1,.166,1.781,9.46,9.46,0,0,1-.048.946A3.963,3.963,0,0,0,60.7,18.643a3.055,3.055,0,0,0,.38.02,3.963,3.963,0,0,0,3.939-3.578q.083-.861.083-1.7A17.055,17.055,0,0,0,64.79,10.1Z" transform="translate(165.524 20.404)" fill="#484e56"/><path d="M51.654,10.49l3.737,1a4.01,4.01,0,0,0,1.025.135,3.959,3.959,0,0,0,1.021-7.782l-3.737-1a3.958,3.958,0,1,0-2.047,7.648Z" transform="translate(141.185 7.992)" fill="#484e56"/><path d="M56.377,11.758l3.741,1a4.01,4.01,0,0,0,1.025.135,3.959,3.959,0,0,0,1.021-7.782l-3.741-1a3.958,3.958,0,1,0-2.047,7.648Z" transform="translate(155.158 11.739)" fill="#484e56"/><path d="M59.223,21.239a3.956,3.956,0,0,0-4.849,2.8l-1,3.737a3.96,3.96,0,0,0,2.8,4.849,4.017,4.017,0,0,0,1.029.135,3.956,3.956,0,0,0,3.82-2.933l1-3.737A3.96,3.96,0,0,0,59.223,21.239Z" transform="translate(154.556 62.432)" fill="#484e56"/><path d="M159.608,177.146a3.963,3.963,0,0,0-4.849,2.8L154,182.763v-.681c0-.067-.036-.123-.04-.19v-15.1c0-.067.04-.123.04-.19v-3.871c0-.067-.036-.123-.04-.19v-15.1c0-.067.04-.123.04-.19v-3.871c0-.067-.036-.123-.04-.19v-15.1c0-.067.04-.123.04-.19v-3.871c0-.067-.036-.123-.04-.19v-15.1c0-.067.04-.123.04-.19V104.67c0-.067-.036-.123-.04-.19v-15.1c0-.067.04-.123.04-.19V85.305c0-.067-.036-.123-.04-.19v-15.1c0-.067.04-.123.04-.19V65.948c0-.067-.036-.123-.04-.19v-15.1c0-.067.04-.123.04-.19V46.6c0-.067-.036-.123-.04-.19V31.3c0-.067.04-.123.04-.19V27.238c0-.067-.036-.123-.04-.19V17.437A17.454,17.454,0,0,0,136.526,0H36.816A17.459,17.459,0,0,0,19.378,17.437v165.3l-.756-2.818a3.959,3.959,0,0,0-7.648,2.05l1,3.737a3.956,3.956,0,0,0,7.406.653v9.394a3.779,3.779,0,0,0-.594.063,3.96,3.96,0,0,0-2.8,4.849l1,3.737a3.922,3.922,0,0,0,2.391,2.628v13.016a17.457,17.457,0,0,0,17.437,17.437h99.706a17.459,17.459,0,0,0,17.437-17.437v-13a3.908,3.908,0,0,0,2.431-2.644l1-3.737a3.961,3.961,0,0,0-2.8-4.849,3.814,3.814,0,0,0-.633-.063V186.4a.26.26,0,0,0,.016-.059,3.96,3.96,0,0,0,7.422-.629l1-3.741A3.937,3.937,0,0,0,159.608,177.146ZM27.3,31.668H146.05V182.09H27.3V31.668Zm9.52-23.751h99.71a9.532,9.532,0,0,1,9.52,9.52v6.314H27.291V17.437A9.538,9.538,0,0,1,36.816,7.917Zm99.71,221.675H36.816a9.532,9.532,0,0,1-9.52-9.52V190.007H146.05v30.065A9.532,9.532,0,0,1,136.526,229.592Z" transform="translate(29.122)" fill="#484e56"/><path d="M55.426,35.412a3.942,3.942,0,0,0-4.849,2.8l-1,3.737a3.961,3.961,0,0,0,2.8,4.849,4.01,4.01,0,0,0,1.025.135A3.957,3.957,0,0,0,57.219,44l1-3.737A3.952,3.952,0,0,0,55.426,35.412Z" transform="translate(143.323 104.347)" fill="#484e56"/><path d="M54.161,40.133a3.942,3.942,0,0,0-4.849,2.8l-1,3.737a3.96,3.96,0,0,0,2.8,4.849,4.018,4.018,0,0,0,1.029.135,3.956,3.956,0,0,0,3.82-2.933l1-3.737A3.963,3.963,0,0,0,54.161,40.133Z" transform="translate(139.58 118.318)" fill="#484e56"/><path d="M56.688,30.689a3.938,3.938,0,0,0-4.845,2.8l-1,3.741a3.959,3.959,0,0,0,7.648,2.05l1-3.741A3.963,3.963,0,0,0,56.688,30.689Z" transform="translate(147.068 90.37)" fill="#484e56"/><path d="M57.957,25.962a3.951,3.951,0,0,0-4.849,2.8l-1,3.737a3.961,3.961,0,0,0,2.8,4.849,4.009,4.009,0,0,0,1.025.135,3.957,3.957,0,0,0,3.82-2.933l1-3.737A3.956,3.956,0,0,0,57.957,25.962Z" transform="translate(150.811 76.4)" fill="#484e56"/></g><text transform="translate(68 365.629)" fill="#d8d8d8" font-size="69" font-family="Montserrat-Black, Montserrat" font-weight="800" letter-spacing="-0.058em" opacity="0.1"><tspan x="0" y="0">SHAKE</tspan></text></g></svg>