<svg xmlns="http://www.w3.org/2000/svg" xmlns:xlink="http://www.w3.org/1999/xlink" width="131.385" height="129.409" viewBox="0 0 131.385 129.409"><defs><linearGradient id="a" x1="1" y1="0.5" x2="0" y2="0.5" gradientUnits="objectBoundingBox"><stop offset="0.01"/><stop offset="1" stop-opacity="0"/></linearGradient><linearGradient id="b" x1="0" y1="0.499" x2="1" y2="0.499" xlink:href="#a"/><linearGradient id="c" x1="0.164" y1="0.779" x2="0.836" y2="0.103" gradientUnits="objectBoundingBox"><stop offset="0" stop-color="#ecc4d7"/><stop offset="0.42" stop-color="#efd4d1"/><stop offset="1" stop-color="#f2eac9"/></linearGradient><linearGradient id="d" x1="0.083" y1="0.529" x2="1" y2="0.529" xlink:href="#c"/><linearGradient id="e" x1="0.489" y1="0.342" x2="0.671" y2="0.817" xlink:href="#c"/><linearGradient id="f" x1="0.172" y1="-0.445" x2="0.85" y2="1.568" gradientUnits="objectBoundingBox"><stop offset="0.01"/><stop offset="0.13" stop-opacity="0.69"/><stop offset="1" stop-opacity="0"/></linearGradient><linearGradient id="g" x1="0.546" y1="1.303" x2="0.47" y2="-0.237" xlink:href="#f"/><linearGradient id="h" x1="0.507" y1="2.369" x2="0.492" y2="-0.921" xlink:href="#f"/><linearGradient id="i" x1="0" y1="0.5" x2="1" y2="0.5" xlink:href="#c"/><linearGradient id="j" x1="-0.002" y1="0.501" x2="0.998" y2="0.501" xlink:href="#c"/><linearGradient id="k" x1="0" y1="0.5" x2="1.002" y2="0.5" xlink:href="#c"/><linearGradient id="m" x1="0.002" y1="0.5" x2="1.001" y2="0.5" xlink:href="#c"/><linearGradient id="o" x1="1.544" y1="1.244" x2="0.478" y2="0.473" xlink:href="#a"/><linearGradient id="p" x1="-1.382" y1="0.734" x2="0.472" y2="0.503" xlink:href="#a"/><linearGradient id="q" x1="-0.814" y1="1.121" x2="0.899" y2="0.328" xlink:href="#f"/><linearGradient id="r" x1="-0.131" y1="-3.191" x2="0.638" y2="1.747" xlink:href="#a"/><linearGradient id="s" x1="0.341" y1="1.863" x2="0.589" y2="-0.695" xlink:href="#f"/><linearGradient id="t" x1="0.504" y1="1.488" x2="0.493" y2="-0.866" xlink:href="#f"/><linearGradient id="u" x1="0.494" y1="-1.228" x2="0.505" y2="1.95" xlink:href="#f"/></defs><g transform="translate(-227.634 -667.017)"><path d="M30.756,14.892c-1.5,6.644-1.776,13.862-5.655,19.471-4.674,6.727-13.39,9.4-19.073,15.277-7.377,7.68-8.087,20.832-1.556,29.237,3.583,4.631,8.77,7.653,13.307,11.356C26.494,97.394,33.007,107.361,43,112.644a33.331,33.331,0,0,0,34.51-2.587c8.935-6.591,14.209-17.509,23.8-23.093,4.754-2.776,10.331-4.084,14.919-7.162,7.216-4.848,11.067-14,10.078-22.6s-6.53-16.449-14.046-20.832c-4.286-2.484-9.529-4.269-11.8-8.677-1.886-3.649-1.147-8.006-1.776-12.052A17.747,17.747,0,0,0,92.968,5.252C86.411-.521,76.62-.6,67.967.65S50.779.9,42.661,1.543C35.539,2.175,32.342,7.922,30.756,14.892Z" transform="translate(231.247 677.851)" fill="#ffcc7c" opacity="0.2"/><path d="M40.19.378a14.344,14.344,0,0,1,6.652,1.909,11.256,11.256,0,0,1,2.216,2.046A24.314,24.314,0,0,1,54.8,16.964c.52,3.928.083,7.94.63,11.85a11.2,11.2,0,0,0,2.6,6.3c1.532,1.61,3.724,2.428,5.833,3.193a.822.822,0,0,1,.494,1.418l-2.874,5.319a1.119,1.119,0,0,1-.467.546,1.251,1.251,0,0,1-1.039-.027c-2.9-.894-5.913-1.883-8.1-3.955-3.448-3.273-4.105-8.429-4.545-13.149-.354,4.637-.711,9.248-1.095,13.885a2.139,2.139,0,0,1-.274,1.091,2.225,2.225,0,0,1-1.613.711,151.293,151.293,0,0,1-17.9,1.364c-1.425.027-3.094-.11-3.814-1.31a3.817,3.817,0,0,1-.411-2.073c-.137-4.72-.247-9.44-.384-14.187a26.1,26.1,0,0,1-3.722,7.2c-3.888,4.776-10.544,6.247-16.67,6.931A46.571,46.571,0,0,0,0,36.318a6.521,6.521,0,0,0,3.5-1.342,34.418,34.418,0,0,0,7.91-6.683,17.2,17.2,0,0,0,4.105-9.357,34.293,34.293,0,0,0-.137-5.321c-.274-5.1.9-10.911,6.324-12.847C23.842,0,26.642.219,28.852.112A71.416,71.416,0,0,1,40.19.378Z" transform="translate(261.893 698.528)" fill="#ffcc7c"/><path d="M4.033.253A.622.622,0,0,0,3.654,0a.737.737,0,0,0-.511.195A7.232,7.232,0,0,0,0,5.986a1.71,1.71,0,0,0,.249.973,1.466,1.466,0,0,0,1.611.414A2.942,2.942,0,0,0,3.223,6.3a6.4,6.4,0,0,0,1.261-2.94A4.23,4.23,0,0,0,4.033.253Z" transform="translate(322.354 736.936)" fill="url(#a)"/><path d="M.4.195A.449.449,0,0,1,.674,0a.524.524,0,0,1,.375.15A5.619,5.619,0,0,1,3.344,4.59a1.358,1.358,0,0,1-.182.747,1.039,1.039,0,0,1-1.178.317,2.179,2.179,0,0,1-1-.821A5.059,5.059,0,0,1,.066,2.578,3.4,3.4,0,0,1,.4.195Z" transform="translate(261.221 734.863)" fill="url(#b)"/><path d="M1.609,7.444A18.538,18.538,0,0,0,.131,17.484,55.413,55.413,0,0,0,2.484,27.5a1.606,1.606,0,0,0,.413.765,1.468,1.468,0,0,0,.985.19l3.094-.163a.9.9,0,0,0,.464-.11.835.835,0,0,0,.224-.572c.054-.682.108-1.342.164-2.012a1.789,1.789,0,0,0,.794,2.046,4.169,4.169,0,0,0,2.3.546,15.024,15.024,0,0,0,4.132-.49c.137-.791.274-1.583.411-2.4a2.356,2.356,0,0,0,2,2.459,6.672,6.672,0,0,0,3.421-.463,7.515,7.515,0,0,0,.224-3.22,1.913,1.913,0,0,0,1.371,2.155,3.135,3.135,0,0,0,2.654-.6,1.826,1.826,0,0,0,.821-1.391,24.938,24.938,0,0,0-.875-13.941,17.8,17.8,0,0,0-4.982-7.6C13.817-2.648,5.03.489,1.609,7.444Z" transform="translate(280.108 667.017)" fill="#3f3d56"/><path d="M8.379,5.968a2.806,2.806,0,0,0-.054.776C5.312,10.283,1.6,8.215,0,7.027A6.628,6.628,0,0,0,.159,5.659C.469,3.3.684,1.61.33.655.384.6.437.519.494.465A5.573,5.573,0,0,0,3.859,1.909,5.152,5.152,0,0,0,7.58,0,44.636,44.636,0,0,0,8.379,5.968Z" transform="translate(290.969 693.421)" fill="url(#c)"/><path d="M.3.321.327.294C.327.267.327.294.3.321Z" transform="translate(290.942 693.783)" fill="url(#d)"/><path d="M16.144,10.336c-.083,3.164-.547,6.437-2.326,9.084a10.138,10.138,0,0,1-.657.845,5.152,5.152,0,0,1-3.722,1.909A5.287,5.287,0,0,1,6.074,20.73c-.027-.029-.056-.029-.083-.056l-.11.224a2.247,2.247,0,0,0-.547-.818A17.225,17.225,0,0,1,.651,11.644C-.06,8.534-.717,5.75,1.719,3.159A10.441,10.441,0,0,1,6.756.375,8.1,8.1,0,0,1,11.518.348a6.9,6.9,0,0,1,3.915,4.2A15.882,15.882,0,0,1,16.144,10.336Z" transform="translate(285.391 673.156)" fill="url(#e)"/><path d="M66.8,20.871a9.415,9.415,0,0,1-5.119,2.209C43.61,24.772,46.266,21.307,34,21.579c-.6.013-1.193.045-1.772.092-11.423.894-19.308,7.539-29.612,3.074C.26,23.73-.238,20.783.092,17.906a16.675,16.675,0,0,1,.857-3.665A17.286,17.286,0,0,1,8.127,5.895a37.375,37.375,0,0,1,6.607-3.276A18.931,18.931,0,0,1,19.824.982C25,.464,30.307.573,35.48.383,38.491.247,41.5.137,44.487.028a12.465,12.465,0,0,1,2.847.136,9.564,9.564,0,0,1,2.216.874A77.482,77.482,0,0,1,65.727,11.7c1.346,1.147,2.71,2.459,3.064,4.2A5.419,5.419,0,0,1,66.8,20.871Z" transform="translate(262.988 741.49)" fill="#ffcc7c"/><path d="M25.657,4.167l-5.142-.42a1.3,1.3,0,0,0-.875.134,2.5,2.5,0,0,0-.426.525c-.577.718-1.674.655-2.513,1.035A4.87,4.87,0,0,0,15.03,6.965,5.8,5.8,0,0,0,13.5,9.871c.9.183.6.586,1.5.767-4.89-.447-9.891-1.894-15-1.33C3.829,7.886,5.947,6.716,15.8,3.418c1.407-.472-1.18-2.475.224-2.965A12.465,12.465,0,0,1,20.34.007a43.7,43.7,0,0,1,6.281.409c1.169.19,3.179.894,2.757,2.459C28.975,4.371,26.81,4.264,25.657,4.167Z" transform="translate(295.085 753.833)" fill="url(#f)"/><path d="M48.317,2.486l-15.5,5.961-.583.378C20.807,9.719,12.921,16.364,2.618,11.9.26,10.884-.238,7.937.092,5.06A8.134,8.134,0,0,0,8.782,8.447C10.469,9.371,46.069,0,46.069,0c-.153.821,1.9,1.342,1.9,1.342Z" transform="translate(262.99 754.336)" fill="url(#g)"/><path d="M1.358,5.185c1.57-.53,3.2-2.075,4.834-2.321.951-.143,1.86-.485,2.8-.7a10.69,10.69,0,0,1,5.981.36c.648.224,1.274.53,1.938.715a10.024,10.024,0,0,0,2.8.288A23.473,23.473,0,0,0,32.3.309a1.53,1.53,0,0,1,.933-.3,2.937,2.937,0,0,1,.718.309c.9.4,1.916-.152,2.9-.282A6.739,6.739,0,0,1,40.213.76c1.429.593,4.069,2.578,5.472,3.222.52.237,1.095.541,1.256,1.089a2.292,2.292,0,0,1-1.57.378l-6.459-.042a11.144,11.144,0,0,1-3.381-.364c-.8-.255-1.539-.686-2.353-.894a8.613,8.613,0,0,0-2.916-.123A49.641,49.641,0,0,0,17.369,6.831a13.467,13.467,0,0,1-2.376.722,13.105,13.105,0,0,1-3.033,0q-3.942-.3-7.9-.279c-.864,0-2.813.617-3.589.132C-.677,6.677.526,5.462,1.358,5.185Z" transform="translate(274.569 746.814)" fill="url(#h)"/><path d="M3.675,12.85a101.179,101.179,0,0,1,16.5-6.084c.357-.11.794-.246.9-.6a1.039,1.039,0,0,0-.027-.572A15.714,15.714,0,0,0,18.967,1.2,2.044,2.044,0,0,0,16.7.027,92.1,92.1,0,0,0,0,3.709" transform="translate(290.224 750.653)" fill="none" stroke="#fff" stroke-miterlimit="10" stroke-width="1.68"/><path d="M3.1,7.922A14.566,14.566,0,0,1,14.868,9.149a3.144,3.144,0,0,0,1.425.6c.527.027,1.122-.3,1.149-.818.027-.463-.411-.845-.821-1.062A4.737,4.737,0,0,0,14.6,7.322c-.547-1.746-2.3-2.837-4-3.577S7.075,2.354,5.895.934C5.567.554,5.238.062,4.746.009a1.491,1.491,0,0,0-1.041.38C2.557,1.263,1.846,2.681.531,3.282A3.482,3.482,0,0,0,.094,5.818,3.641,3.641,0,0,0,1.68,7.893a1.728,1.728,0,0,0,1.42.029Z" transform="translate(308.755 747.51)" fill="url(#i)"/><path d="M15.449.094a3.469,3.469,0,0,0-1.97.163,10.908,10.908,0,0,1-2.3.271A17.274,17.274,0,0,0,8.524.557a9.337,9.337,0,0,0-1.887.6A34.637,34.637,0,0,1,1.408,2.63c-.574.11-1.285.326-1.4.894s.52,1.062,1.095,1.091a9.447,9.447,0,0,0,1.725-.273,6.91,6.91,0,0,1,1.833.08q3.289.315,6.6.3A7.249,7.249,0,0,0,12.8,4.615a9,9,0,0,0,1.916-.928c.63-.326,2.436-.738,2.71-1.473C17.668,1.4,16.106.3,15.449.094Z" transform="translate(273.658 751.572)" fill="url(#j)"/><path d="M8.761,11.718a1.132,1.132,0,0,0,.3.6,1.219,1.219,0,0,0,.767.165l3.612-.083a3.288,3.288,0,0,0,1.615-.3,1.226,1.226,0,0,0,.684-1.364c.027.49.027,1.008.056,1.5,1.312.11,2.627.246,3.968.353a20.441,20.441,0,0,0-2.053-7.311A9.977,9.977,0,0,0,12.128.342,8.06,8.06,0,0,0,4.983,1.6,12.407,12.407,0,0,0,1.809,5.558,11.487,11.487,0,0,0,0,11.262c.056,2.7,1.014,2.459,3.2,2.645,1.068.083,2.737.982,3.778.6,1.559-.548,1.2-2.837,1.422-4.174A6.906,6.906,0,0,0,8.761,11.718Z" transform="translate(283.386 668.664)" fill="#3f3d56"/><path d="M3.931,5.082a13.083,13.083,0,0,1,7.062-2.236,6.549,6.549,0,0,1,2.3.244,7.663,7.663,0,0,1,1.833,1.064,18.354,18.354,0,0,1,2.656,2.155,9.056,9.056,0,0,1,2.526,6.629,3.244,3.244,0,0,0,.547-1.746A10.377,10.377,0,0,0,9.36.062,12.661,12.661,0,0,0,5.035,1.4a9.428,9.428,0,0,0-1.588.955A8.543,8.543,0,0,0,.436,6.942a8.536,8.536,0,0,0-.384,3.41C.739,9.9.983,8.415,1.423,7.7A10.383,10.383,0,0,1,3.931,5.082Z" transform="translate(282.54 668.671)" fill="#ffcc7c"/><path d="M15.981,2.39C15.269,1.9,12.432,1.127,11.664.717A4.378,4.378,0,0,0,7.723.308a3.693,3.693,0,0,0-2.216,3.11c-.029.762.164,1.637-.3,2.263a2.221,2.221,0,0,1-.875.628A13.993,13.993,0,0,1,1.4,7.365,2.848,2.848,0,0,0,.333,7.8.811.811,0,0,0,.109,8.838a1,1,0,0,0,.9.3,11.01,11.01,0,0,0,3.531-.572,10.745,10.745,0,0,0-2.93,2.509,3.583,3.583,0,0,0,2.326-.054A42.6,42.6,0,0,0,13.3,7.338C15.386,6.227,18.5,4.109,15.981,2.39Z" transform="translate(246.787 734.227)" fill="url(#k)"/><path d="M2.024,1.7a.749.749,0,0,1-.328.494,1.021,1.021,0,0,1-.431.123,1,1,0,0,1-.415,0A1.053,1.053,0,0,1,.516,2.1a1.451,1.451,0,0,1-.433-.478A1.179,1.179,0,0,1,.007,1.06,1.39,1.39,0,0,1,.3.226.711.711,0,0,1,1.151.07c.321.1.608.15.772.494a1.616,1.616,0,0,1,.114.537A1.959,1.959,0,0,1,2.024,1.7Z" transform="translate(254.938 736.202)" fill="url(#k)"/><path d="M19.343,6.172c-2.546.136-5.42.163-7.253-1.583-1.2-1.118-1.752-2.81-3.04-3.8A3.887,3.887,0,0,0,5.6.159,3.6,3.6,0,0,0,3.315,2a.877.877,0,0,1-.9.572h0C1.071,2.8,1.053,3.587.45,4.186S-.066,6.2.225,6.981A2.375,2.375,0,0,0,1.347,8.043a19.742,19.742,0,0,0,9.662,2.647.69.69,0,0,0,.52-.136c.224-.224.027-.628-.247-.818s-.6-.356-.713-.655a9.374,9.374,0,0,0,5.777.765V9.081a6.731,6.731,0,0,1-2.957-1.037,14.31,14.31,0,0,0,5.256-.671,1.273,1.273,0,0,0,.767-.447A.486.486,0,0,0,19.343,6.172Z" transform="translate(323.249 736.466)" fill="url(#m)"/><path d="M2.325,1.831a.987.987,0,0,1-.794.492,2.074,2.074,0,0,1-.947-.181.751.751,0,0,1-.536-.995A1.384,1.384,0,0,1,.339.409,1.178,1.178,0,0,1,.732.145a1.247,1.247,0,0,1,1.3.074,1.326,1.326,0,0,1,.4,1.067A1.376,1.376,0,0,1,2.325,1.831Z" transform="translate(328.764 738.309)" fill="url(#m)"/><path d="M131.277,20.312c-.027.151-.06.3-.1.449a2.686,2.686,0,0,1-.912,1.521c-.9.658-2.13.328-3.2.027-13.992-4.168-28.777-4.687-43.344-4.085S54.648,20.586,40.083,20.9c-7.734.164-15.468-.083-23.2-.33-4.072-.137-8.117-.247-12.189-.384a7.3,7.3,0,0,1-3.169-.575A2.537,2.537,0,0,1,.047,16.975a3.382,3.382,0,0,1,1.31-1.728c2.464-1.935,5.534-2.878,8.451-4.089a25.532,25.532,0,0,0,3.055-1.476c4.7-2.714,8.417-7.622,13.8-8.251,3.743-.449,7.378,1.4,11.15,1.809s7.378-.575,11.04-.932c3.308-.384,5.438.328,8.527.959C65,4.857,74.215,3.624,81.794,2.17,85.319,1.485,88.818.608,92.37.224a71.988,71.988,0,0,1,13.145.225c5.219.384,10.413.8,15.631,1.207a3.893,3.893,0,0,1,1.94.494,3.564,3.564,0,0,1,1.039,1.261c1.283,2.139,2.542,4.249,3.826,6.388C129.855,13.032,131.878,16.584,131.277,20.312Z" transform="translate(227.634 773.762)" fill="#ffcc7c"/><path d="M1.5,0c.439,1.72-.2,3.524-.761,5.217S-.348,8.77.3,10.435a16.166,16.166,0,0,1,.732,1.695A1.514,1.514,0,0,1,.589,13.8" transform="translate(283.145 712.996)" fill="none" stroke="#fff" stroke-miterlimit="10" stroke-width="1.68"/><path d="M.124,0C-.859,1.251,4.468,5.658.451,17.08" transform="translate(308.765 710.368)" fill="none" stroke="#fff" stroke-miterlimit="10" stroke-width="1.68"/><path d="M15.023,7.8a21.44,21.44,0,0,1-2.7,3.7,20.794,20.794,0,0,1-9.544,5.234C1.5,17.1-.09,17.784,0,19.086a1.927,1.927,0,0,0,1.7,1.568,5.846,5.846,0,0,0,2.475-.325l3.7-1.055c2.527-.719,5.141-1.484,7.114-3.191a15.034,15.034,0,0,0,3.771-5.988,9.1,9.1,0,0,0,.846-5c-.157-.8-.511-1.559-.675-2.362A8.184,8.184,0,0,1,18.992,0C17.48,2.384,16.53,5.316,15.023,7.8Z" transform="translate(263.765 719.237)" fill="url(#o)"/><path d="M4.57,10.044a17.522,17.522,0,0,0,6.779,7.423c.542.325,1.182.765,1.13,1.383a1.089,1.089,0,0,1-1,.855,2.876,2.876,0,0,1-1.392-.294,16.32,16.32,0,0,1-8.716-8.49C-.006,7.748-.628,3.24.859,0c1.166.457,1.53,3.474,1.855,4.621A32.951,32.951,0,0,0,4.57,10.044Z" transform="translate(309.422 723.178)" fill="url(#p)"/><path d="M2.616,4.041A33.842,33.842,0,0,0,3.623,8.057a7.653,7.653,0,0,0,1.9,3.724,6.715,6.715,0,0,0,2.788,1.3,2.414,2.414,0,0,1,.891.379.786.786,0,0,1,.292.87c-.176.415-.733.469-1.183.446a46.476,46.476,0,0,1-7.432-.892,1.336,1.336,0,0,1-.508-.178c-.381-.265-.388-.819-.354-1.283a68.532,68.532,0,0,0,.2-10.145C.166,1.674.318-.27,1.419.031,2.393.315,2.48,3.253,2.616,4.041Z" transform="translate(284.13 728.434)" fill="url(#q)"/><path d="M0,2.3q7.066-.063,14.124-.481A2.811,2.811,0,0,0,12,.331,5.735,5.735,0,0,0,9.339.09c-1,.289-1.976.806-2.991,1.1A22.979,22.979,0,0,1,0,2.3Z" transform="translate(298.582 741.244)" fill="url(#r)"/><path d="M.879,0S4.458,4.262,9.793,0l.718,1.034S7.692,5.058,3.8,3.638,0,.711,0,.711Z" transform="translate(289.714 699.529)" fill="#ffcc7c"/><path d="M.879,0S4.458,4.262,9.793,0l.718,1.034S7.692,5.058,3.8,3.638,0,.711,0,.711Z" transform="translate(289.714 699.529)" fill="url(#s)"/><path d="M131.056,9.6a2.682,2.682,0,0,1-.911,1.519c-.9.658-2.128.328-3.193.027-13.979-4.163-28.75-4.681-43.3-4.08S54.6,9.416,40.046,9.726c-7.727.164-15.454-.083-23.181-.33-4.068-.137-8.11-.247-12.178-.384a7.3,7.3,0,0,1-3.166-.574A2.534,2.534,0,0,1,.047,5.81,3.378,3.378,0,0,1,1.356,4.084C3.817,2.152,6.885,1.21,9.8,0a66.539,66.539,0,0,1-7,5.592c37.963,7.668,77.765-6.8,115.753.734,3.357.673,8.423.857,11.453,2.424A2.91,2.91,0,0,1,131.056,9.6Z" transform="translate(227.634 784.929)" fill="url(#t)"/><path d="M2.6,3.394A5.225,5.225,0,0,0,.543,4.627,1.893,1.893,0,0,0,.267,6.891a2.637,2.637,0,0,0,2.194.722l36.42.256a39.066,39.066,0,0,0,4.712-.159c4.238-.489,8.194-2.354,12.064-4.2.485-.231,1.025-.529,1.144-1.064.182-.829-.749-1.429-1.537-1.676C50.276-.8,44.925.38,39.769,1.181A104.134,104.134,0,0,1,20.3,2.351q-4.88-.166-9.731-.785C7.406,1.162,5.544,2.21,2.6,3.394Z" transform="translate(266.393 775.075)" fill="url(#u)"/></g></svg>