<svg xmlns="http://www.w3.org/2000/svg" xmlns:xlink="http://www.w3.org/1999/xlink" width="120.296" height="113.155" viewBox="0 0 120.296 113.155"><defs><linearGradient id="a" x1="0.796" y1="0.955" x2="-0.384" y2="-0.889" gradientUnits="objectBoundingBox"><stop offset="0.01"/><stop offset="0.13" stop-opacity="0.69"/><stop offset="1" stop-opacity="0"/></linearGradient><linearGradient id="b" x1="0.945" y1="0.998" x2="-0.505" y2="-0.473" xlink:href="#a"/><linearGradient id="c" x1="-0.004" y1="0.5" x2="0.999" y2="0.5" gradientUnits="objectBoundingBox"><stop offset="0" stop-color="#ecc4d7"/><stop offset="0.42" stop-color="#efd4d1"/><stop offset="1" stop-color="#f2eac9"/></linearGradient><linearGradient id="d" x1="-0.001" y1="-0.588" x2="1" y2="-0.588" xlink:href="#c"/><linearGradient id="e" x1="0.666" y1="29.122" x2="-0.038" y2="28.553" xlink:href="#c"/><linearGradient id="f" x1="0.411" y1="11.017" x2="0.632" y2="10.452" xlink:href="#c"/><linearGradient id="g" x1="0" y1="0.5" x2="1" y2="0.5" xlink:href="#a"/><linearGradient id="h" x1="0" y1="0.5" x2="1" y2="0.5" xlink:href="#a"/><linearGradient id="i" x1="1.062" y1="0.77" x2="-0.755" y2="-0.108" xlink:href="#a"/><linearGradient id="j" x1="1.029" y1="0.513" x2="0.016" y2="0.477" xlink:href="#a"/><linearGradient id="k" x1="-2.684" y1="0.255" x2="3.21" y2="0.68" xlink:href="#a"/><linearGradient id="l" x1="0.051" y1="0.691" x2="1.723" y2="0.192" xlink:href="#a"/><linearGradient id="m" x1="0.351" y1="0.167" x2="1.313" y2="2.097" xlink:href="#a"/><linearGradient id="n" x1="0" y1="0.5" x2="1" y2="0.5" xlink:href="#a"/><linearGradient id="o" x1="-0.153" y1="0.661" x2="1.083" y2="0.425" gradientUnits="objectBoundingBox"><stop offset="0.01"/><stop offset="0.42" stop-opacity="0"/></linearGradient><linearGradient id="p" x1="0.896" y1="0.419" x2="-2.367" y2="1.179" xlink:href="#a"/><linearGradient id="q" x1="0" y1="0.5" x2="1.003" y2="0.5" xlink:href="#a"/><linearGradient id="r" x1="0.001" y1="0.501" x2="0.998" y2="0.501" xlink:href="#a"/><linearGradient id="s" x1="0.507" y1="-0.161" x2="0.482" y2="2.655" xlink:href="#a"/><linearGradient id="t" x1="1.65" y1="0.423" x2="-0.664" y2="0.549" xlink:href="#a"/><linearGradient id="u" x1="-0.831" y1="0.721" x2="2.297" y2="0.27" xlink:href="#a"/><linearGradient id="v" x1="0.361" y1="0.44" x2="-0.364" y2="0.207" xlink:href="#a"/><linearGradient id="w" x1="-1.006" y1="0.545" x2="4.282" y2="0.412" xlink:href="#a"/><linearGradient id="x" x1="0.849" y1="0.65" x2="-0.578" y2="0.161" xlink:href="#a"/><linearGradient id="y" x1="-0.079" y1="-0.471" x2="1.402" y2="1.533" gradientUnits="objectBoundingBox"><stop offset="0.01"/><stop offset="1" stop-opacity="0"/></linearGradient><linearGradient id="z" x1="0.146" y1="-0.161" x2="1.221" y2="1.278" xlink:href="#y"/><linearGradient id="aa" x1="0.502" y1="-0.412" x2="0.497" y2="3.327" xlink:href="#a"/><linearGradient id="ab" x1="0" y1="0.5" x2="0.999" y2="0.5" xlink:href="#a"/><linearGradient id="ac" x1="0" y1="0.497" x2="1" y2="0.497" xlink:href="#a"/></defs><g transform="translate(-243 -683)"><path d="M114.062,83.918q-.259.51-.531,1.014c-1.651,3.072-3.643,6.1-6.518,8.1-3.908,2.713-20.45,18.176-25.2,18.464-22.075,1.371-26.754,2.283-48.853,1.153-5.424-.277-22.917-12.438-29.794-18.97a22.391,22.391,0,0,1-2.085-2.217c-4.41-5.565,5.879-14.983,8.534-19.714,7.527-13.4.167-31.013,6.016-45.235C19.71,16.584,29.442,10.271,39.007,5.443c7.143-3.6,15.2-6.8,22.964-4.854C71.815,3.073,77.946,13.01,81.148,22.667c1.582,4.727,2.733,9.656,5.106,14.076s6.183,8.338,11.084,9.347c2.061.432,4.2.312,6.28.624,7.624,1.182,13.352,8.359,14.67,15.973C119.533,69.927,117.406,77.362,114.062,83.918Z" transform="translate(244.648 683)" fill="#5dcf65" opacity="0.151"/><path d="M12.634,6.63a5.763,5.763,0,0,0,2.107-1.661c.552-.845.7-2,1.534-2.581a3.644,3.644,0,0,1,1.247-.434L25,.506A15.052,15.052,0,0,1,30.626.145a14.136,14.136,0,0,1,5.03,2.484c3.092,2.05,6.182,4.124,9.272,6.169a5.208,5.208,0,0,1,1.629,1.447,4.96,4.96,0,0,1,.6,1.566,47.694,47.694,0,0,1,1.1,5.523,3.979,3.979,0,0,1,0,1.592,4,4,0,0,1-.766,1.4c-2.23,3.11-4.457,6.2-6.708,9.308a3.451,3.451,0,0,1-1.966,1.639,3.787,3.787,0,0,1-1.461-.119C31.583,30,25.5,30.745,19.846,29.129a42.107,42.107,0,0,1-6.085-2.437c-1.987-.916-4.026-1.858-6.038-2.8-3.3-1.518-10.205-4.221-6.8-8.826C3.746,11.278,8.632,8.848,12.634,6.63Z" transform="translate(283.648 747.542)" fill="#5dcf65"/><path d="M12.634,6.63a5.763,5.763,0,0,0,2.107-1.661c.552-.845.7-2,1.534-2.581a3.644,3.644,0,0,1,1.247-.434L25,.506A15.052,15.052,0,0,1,30.626.145a14.136,14.136,0,0,1,5.03,2.484c3.092,2.05,6.182,4.124,9.272,6.169a5.208,5.208,0,0,1,1.629,1.447,4.96,4.96,0,0,1,.6,1.566,47.694,47.694,0,0,1,1.1,5.523,3.979,3.979,0,0,1,0,1.592,4,4,0,0,1-.766,1.4c-2.23,3.11-4.457,6.2-6.708,9.308a3.451,3.451,0,0,1-1.966,1.639,3.787,3.787,0,0,1-1.461-.119C31.583,30,25.5,30.745,19.846,29.129a42.107,42.107,0,0,1-6.085-2.437c-1.987-.916-4.026-1.858-6.038-2.8-3.3-1.518-10.205-4.221-6.8-8.826C3.746,11.278,8.632,8.848,12.634,6.63Z" transform="translate(283.648 747.542)" fill="url(#a)"/><path d="M0,19.94l9.7-2.021L9.972,7.537,17.564,0l1.165,14.28L29.113,28.838s-16.036-1.213-19.268-3.91S0,19.94,0,19.94Z" transform="translate(289.141 748.641)" fill="url(#b)"/><path d="M6.76,1.339a4.994,4.994,0,0,1-.117,2.425c-.841,3.7-2.5,7.126-3.448,10.777a5.068,5.068,0,0,1-.678,1.776,1.515,1.515,0,0,1-1.634.647,1.533,1.533,0,0,1-.867-1.247,5.424,5.424,0,0,1,.117-1.608c.421-2.666.3-5.431.864-8.066A10.573,10.573,0,0,1,3.124,1.436C4.158.234,6.105-1.036,6.76,1.339Z" transform="translate(297.93 728.866)" fill="url(#c)"/><path d="M.534,11.85C.1,14.377.8,17.072.073,19.528a.922.922,0,0,0-.048.572.714.714,0,0,0,.414.333,4.665,4.665,0,0,0,1.7.429.84.84,0,0,0,.583-.12,1.126,1.126,0,0,0,.292-.5Q5.6,12.127,8.188,4.006A15.329,15.329,0,0,0,9.063,0a38.7,38.7,0,0,0-4.4.739c-.9.549-.875,1.574-1.045,2.479C3.087,6.3,1.07,8.822.534,11.85Z" transform="translate(286.394 740.951)" fill="url(#d)"/><path d="M.7.251A.613.613,0,0,1,.908.041a.655.655,0,0,1,.38-.023A2.314,2.314,0,0,1,2.5.887a3.308,3.308,0,0,1,.79,1.339c0,.046.023.095,0,.118a.185.185,0,0,1-.119.046c-.7.072-2.331.213-2.939-.21S.388.675.7.251Z" transform="translate(291.887 702.775)" fill="url(#e)"/><path d="M4.963,6.147a2.039,2.039,0,0,1-.654,1.061A1.647,1.647,0,0,1,2.8,7.256a3.263,3.263,0,0,1-1.356-1.04,5.938,5.938,0,0,0-.565-.7A5.468,5.468,0,0,1,.43,5.167,1.433,1.433,0,0,1,.048,3.774a.956.956,0,0,1,.407-.543.527.527,0,0,1,.609.1,6.392,6.392,0,0,1,.271-1.841A2.133,2.133,0,0,1,1.922.448a1.986,1.986,0,0,1,.971-.33C3.911-.049,5.718-.26,5.763,1.2a13.449,13.449,0,0,1-.8,4.944Z" transform="translate(292.986 698.106)" fill="url(#f)"/><path d="M1.634,7.134A3.527,3.527,0,0,1,.255,2.815,4.838,4.838,0,0,1,4.1.043,3.226,3.226,0,0,1,5.38.09c-.048.071.074.071.169.071.775.145,1.6.05,2.378.266a1.728,1.728,0,0,1,1.4,1.69.908.908,0,0,0-1.16.674,1.422,1.422,0,0,1-.071.339.461.461,0,0,1-.29.216,1.887,1.887,0,0,1-1.4.024C5.993,3.2,5.558,2.9,5.146,3.057s-.6.8-1.063.845c-.238.024-.53-.1-.725.071-.121.1-.121.29-.145.434s-.121.339-.29.316c-.1,0-.193-.1-.266-.171a.64.64,0,0,0-.868.218,1.062,1.062,0,0,0-.1.949,4.423,4.423,0,0,0,.435.892.8.8,0,0,1,.1.313C2.165,7.239,1.9,7.111,1.634,7.134Z" transform="translate(291.063 696.732)" fill="#3f3d56"/><path d="M.223.708A1.246,1.246,0,0,1,.647.113,1.56,1.56,0,0,1,1.352,0c.493.022.965.087,1.458.154A3.749,3.749,0,0,1,3.54.334a5.079,5.079,0,0,1,1.129.66,18.566,18.566,0,0,0-2.233.216c-.636.108-1.247.329-1.884.417C-.27,1.763.012,1.214.223.708Z" transform="translate(289.965 704.148)" fill="#5dcf65"/><path d="M1.926,6.8A20.823,20.823,0,0,0,1.4,9.205C.967,11.592.534,13.946.1,16.338a2.133,2.133,0,0,0,.359,2.1,2.667,2.667,0,0,0,1.153.434.755.755,0,0,1,.361.194.95.95,0,0,1,.12.384c.118,1.012.215,2.024.335,3.037a.713.713,0,0,0,.12.386.646.646,0,0,0,.5.168,28.527,28.527,0,0,0,10.374-1.422.685.685,0,0,0,.314-.192.5.5,0,0,0,.071-.265c.073-.626.168-1.228.236-1.856a3.494,3.494,0,0,0-.024-1.493c-.144-.5-.529-.915-.709-1.4a2.235,2.235,0,0,1,.071-1.759c.768-.1,1.224,1.083,2.018,1.06a1.464,1.464,0,0,0,.962-.652c.768-.948,1.559-1.88,2.33-2.845a.809.809,0,0,0,.165-.965,2.294,2.294,0,0,0-1.538-1.325,3,3,0,0,1-1.153-.337,1.58,1.58,0,0,1-.5-.891A43.474,43.474,0,0,1,14.06,2.89a4.667,4.667,0,0,0-.473-1.614A2.832,2.832,0,0,0,11.6.048a7.326,7.326,0,0,0-2.4.121,8.7,8.7,0,0,0-2.762.6A11.9,11.9,0,0,0,1.942,6.795Z" transform="translate(283.099 705.246)" fill="#5dcf65"/><path d="M0,0C.586.425,6.592.165,6.592.165l-3.407,6.7a1.751,1.751,0,0,1-1.172-.33C1.657,6.154,1.311,5.634,0,0Z" transform="translate(297.106 708.268)" fill="#5dcf65"/><path d="M8.639,1.019a5.5,5.5,0,0,1,2.309.423,1.316,1.316,0,0,1,.473.4c.289.494-.024,1.1-.336,1.573C10.34,4.542,9.595,5.692,8.85,6.82a1.465,1.465,0,0,1-.168.213.9.9,0,0,1-.6.092A30.211,30.211,0,0,0,1.9,7.055,10.719,10.719,0,0,1,.289,4.424a3.625,3.625,0,0,1,.073-3A2.944,2.944,0,0,1,3.674.107,20.371,20.371,0,0,0,8.639,1.019Z" transform="translate(292.986 726.394)" fill="#3f3d56"/><path d="M.514,0A5.883,5.883,0,0,1,.29.675a3.176,3.176,0,0,0-.137.817c-.047.386-.092.772-.137,1.184a.782.782,0,0,0,.022.41c.067.145.2.194.34.265a5.933,5.933,0,0,0,2.049.218,1.02,1.02,0,0,0,.864-.315.938.938,0,0,0,.137-.36c.159-.625.3-1.227.41-1.855,0-.047.022-.121-.022-.145A.167.167,0,0,0,3.7.848,6.016,6.016,0,0,1,2.225.317,6.273,6.273,0,0,0,.514,0Z" transform="translate(285.845 760.176)" fill="#5dcf65"/><path d="M.267,2.566A2.261,2.261,0,0,0,0,3.631c.072.643.683,1.041,1.246,1.362A25.394,25.394,0,0,0,8.219,7.644a3.87,3.87,0,0,1,.781.2,6.182,6.182,0,0,0,.856.37.676.676,0,0,0,.806-.3.917.917,0,0,0-.1-.792A10.762,10.762,0,0,0,9.147,4.8,13.835,13.835,0,0,1,8,3.333c-.291-.487-.481-1.041-.781-1.511A2.98,2.98,0,0,0,6.254.848,2.671,2.671,0,0,0,4.764.377C4.2.329,3.638.253,3.051.2a7.022,7.022,0,0,0-1.392-.2C1.219.08,1.121.65.938,1A4.722,4.722,0,0,0,.267,2.566Z" transform="translate(283.373 762.922)" fill="#3f3d56"/><path d="M4.228.027A.47.47,0,0,1,4.617.17a.46.46,0,0,1,0,.426q-.377,1.279-.752,2.563A.946.946,0,0,1,3.7,3.49a.824.824,0,0,1-.449.212,8.316,8.316,0,0,1-2.167.119,1.668,1.668,0,0,1-.606-.135A1.357,1.357,0,0,1,0,2.407C.026,1.768.277.274.94.062a5.189,5.189,0,0,1,1.6.023A16.213,16.213,0,0,1,4.228.027Z" transform="translate(297.106 742.324)" fill="#5dcf65"/><path d="M6.047.967c-.463-.3-.96-.552-1.44-.806A1.445,1.445,0,0,0,4.168,0a1.687,1.687,0,0,0-.732.161A6.87,6.87,0,0,1,.95.322,1.283,1.283,0,0,0,.535.344C.413.392.267.482.243.6.168.645.144.507.219.552A.167.167,0,0,1,.267.758a6.481,6.481,0,0,0-.122,3.2c.024.07.024.161.074.208A.493.493,0,0,0,.535,4.3,20.976,20.976,0,0,0,9,4.166a4.293,4.293,0,0,0,1.413-.507c.367-.226.684-.62.537-1.012a1.164,1.164,0,0,0-.391-.453A6.41,6.41,0,0,0,6.047.967Z" transform="translate(296.282 744.796)" fill="#3f3d56"/><path d="M110.683.553q-.259.508-.53,1.009c-1.648,3.059-3.637,6.075-6.506,8.061-3.9,2.7-20.412,18.1-25.15,18.383-22.034,1.365-26.7,2.273-48.76,1.148C24.324,28.88,6.864,16.772,0,10.268L87.183,0A50.22,50.22,0,0,1,102.5,7.631C103.5,3.941,106.936,1.878,110.683.553Z" transform="translate(247.944 766.218)" fill="#5dcf65"/><path d="M110.683.553q-.259.508-.53,1.009c-1.648,3.059-3.637,6.075-6.506,8.061-3.9,2.7-20.412,18.1-25.15,18.383-22.034,1.365-26.7,2.273-48.76,1.148C24.324,28.88,6.864,16.772,0,10.268L87.183,0A50.22,50.22,0,0,1,102.5,7.631C103.5,3.941,106.936,1.878,110.683.553Z" transform="translate(247.944 766.218)" fill="url(#g)"/><path d="M42.523,2.573a11.4,11.4,0,0,1-6.651,3.422,33.774,33.774,0,0,1-7.592.193c5.287,1.87,10.691,3.76,16.284,3.821,1.959.024,3.913-.181,5.869-.314A82.585,82.585,0,0,1,61.2,9.657a2.66,2.66,0,0,1-1.293,2.512c-4.392,3.441-10.62,2.907-15.812,4.917A13.263,13.263,0,0,1,39.885,18.4c-2.044.074-3.873-1.145-5.664-2.139C28.937,13.3,22.93,11.946,16.992,10.793,10.974,9.631,4.59,8.483,0,4.407A5.957,5.957,0,0,1,2.919,3.129C13.367.7,24.181-.721,34.9.374A29.158,29.158,0,0,1,42.523,2.573Z" transform="translate(286.12 766.218)" fill="url(#h)"/><path d="M18.378,6.863a71.7,71.7,0,0,0-.595,9.881,8.884,8.884,0,0,1-.286,2.862A5.964,5.964,0,0,1,16.355,21.5c-3.094,3.51-8.4,3.8-13.015,3.311a2.655,2.655,0,0,1-1.285-.362,2.7,2.7,0,0,1-.906-1.393A24.749,24.749,0,0,1,.033,13.7,21.868,21.868,0,0,1,1.365,6.272,10.232,10.232,0,0,1,6.243.719a8.064,8.064,0,0,1,8.635,1.275,1.568,1.568,0,0,0,.976.553,2.026,2.026,0,0,0,.936-.386c.974-.6,3.165-1.537,3.258-.047.023.53-.833,1.514-1.023,2.02A10.811,10.811,0,0,0,18.378,6.863Z" transform="translate(272.387 703.599)" fill="#5dcf65"/><path d="M18.378,6.863a71.7,71.7,0,0,0-.595,9.881,8.884,8.884,0,0,1-.286,2.862A5.964,5.964,0,0,1,16.355,21.5c-3.094,3.51-8.4,3.8-13.015,3.311a2.655,2.655,0,0,1-1.285-.362,2.7,2.7,0,0,1-.906-1.393A24.749,24.749,0,0,1,.033,13.7,21.868,21.868,0,0,1,1.365,6.272,10.232,10.232,0,0,1,6.243.719a8.064,8.064,0,0,1,8.635,1.275,1.568,1.568,0,0,0,.976.553,2.026,2.026,0,0,0,.936-.386c.974-.6,3.165-1.537,3.258-.047.023.53-.833,1.514-1.023,2.02A10.811,10.811,0,0,0,18.378,6.863Z" transform="translate(272.387 703.599)" fill="url(#i)"/><path d="M12.9,17.7a4.791,4.791,0,0,1-2.069,4.056,6.6,6.6,0,0,1-2.221.652,20.594,20.594,0,0,1-3.48.387A4.506,4.506,0,0,1,2.99,22.35,5.372,5.372,0,0,1,1,19.969a8.681,8.681,0,0,1-.778-1.861,9.968,9.968,0,0,1-.2-2.6A33.523,33.523,0,0,1,.45,9.673a16.536,16.536,0,0,1,.49-1.939,29.491,29.491,0,0,0,3.672-.2A6.446,6.446,0,0,0,8.374,6.115C9.71,4.842,9.9,2.761,10.952,1.247A6.41,6.41,0,0,1,12.138,0c.548.34.155.709-.045,1.391a15.236,15.236,0,0,0-.361,4.748,48.232,48.232,0,0,0,.518,6.85A22.508,22.508,0,0,1,12.9,17.7Z" transform="translate(272.937 705.796)" fill="url(#j)"/><path d="M2.114,6.364a1.791,1.791,0,0,1,.311.86A.541.541,0,0,1,2,7.69c-.047-.112-.091-.233-.141-.345a6.114,6.114,0,0,0-.274-.59.566.566,0,0,0-.427.019A6.778,6.778,0,0,1,.008,3.894,8.178,8.178,0,0,1,.181,1.815,4.235,4.235,0,0,1,.75.086.721.721,0,0,1,.814,0H.836c.536.075,1.075.149,1.609.2a8.123,8.123,0,0,1-.41,2.733A5.152,5.152,0,0,0,2.114,6.364Z" transform="translate(272.662 714.585)" fill="url(#k)"/><path d="M6.53,6.194a1.152,1.152,0,0,1-.065.18,1.538,1.538,0,0,1-.416.533,2.3,2.3,0,0,1-1.5.508,5.206,5.206,0,0,1-2.373-.822,5.654,5.654,0,0,1-.784-.54,3.924,3.924,0,0,1-1-2.581A8.79,8.79,0,0,1,.351,1.766C.233,1.641.111,1.514,0,1.385L4.247,0A2.107,2.107,0,0,1,4.7.593a6.106,6.106,0,0,1,.267.584c.44,1.1.857,2.182,1.3,3.285a5.172,5.172,0,0,1,.284.889,1.683,1.683,0,0,1-.014.843Z" transform="translate(269.641 720.901)" fill="#5dcf65"/><path d="M6.53,6.194a1.152,1.152,0,0,1-.065.18,1.538,1.538,0,0,1-.416.533,2.3,2.3,0,0,1-1.5.508,5.206,5.206,0,0,1-2.373-.822,5.654,5.654,0,0,1-.784-.54,3.924,3.924,0,0,1-1-2.581A8.79,8.79,0,0,1,.351,1.766C.233,1.641.111,1.514,0,1.385L4.247,0A2.107,2.107,0,0,1,4.7.593a6.106,6.106,0,0,1,.267.584c.44,1.1.857,2.182,1.3,3.285a5.172,5.172,0,0,1,.284.889,1.683,1.683,0,0,1-.014.843Z" transform="translate(269.641 720.901)" fill="url(#l)"/><path d="M14.942.758c-.315.477-1.623.606-2.145,1.069a6.137,6.137,0,0,0-1.5,2.4c-.582,1.5-.9,3.179-1.988,4.367a5.92,5.92,0,0,1-3.852,1.795,13.11,13.11,0,0,1-2.784-.06c-.515-.055-1.035-.131-1.552-.208h0a1.56,1.56,0,0,1-.9-.336.573.573,0,0,1-.048-.85A.793.793,0,0,1,.7,8.814c2.763,0,5.838-.1,7.728-2.086,1.139-1.193,1.623-2.864,2.472-4.3a5.177,5.177,0,0,1,2.2-2.148C13.615.042,15.7-.39,14.942.758Z" transform="translate(272.387 704.423)" fill="url(#m)"/><path d="M.484.25A1.267,1.267,0,0,1,.465.387" transform="translate(269.853 722.093)" fill="none" stroke="#000" stroke-miterlimit="10" stroke-width="1.03"/><path d="M2.746,4.969c-.011.311-.032.623-.06.929,0,.045-.011.089-.016.136a.862.862,0,0,1-.147.4.367.367,0,0,1-.25.156.276.276,0,0,1-.218-.057.836.836,0,0,1-.117-.17A28.221,28.221,0,0,1,.631,3.391C.351,2.637-.256,1.442.119.64A1.188,1.188,0,0,1,.578.053a.48.48,0,0,1,.4-.019q.142.3.255.606c.046.12.087.239.131.354.372,1.022.733,2.028,1.107,3.053a5.7,5.7,0,0,1,.278.922Z" transform="translate(273.211 721.451)" fill="url(#n)"/><path d="M.484.255A1.221,1.221,0,0,1,.465.39" transform="translate(279.191 721.266)" fill="none" stroke="#000" stroke-miterlimit="10" stroke-width="1.03"/><path d="M4.244,0a3.085,3.085,0,0,1,.722,1.177c.44,1.1.856,2.182,1.3,3.285A2.719,2.719,0,0,1,6.529,6.2a1.988,1.988,0,0,1-1.98,1.218A5.23,5.23,0,0,1,2.177,6.6a5.9,5.9,0,0,1-.782-.54,3.932,3.932,0,0,1-1-2.579,8.809,8.809,0,0,1-.038-1.7C.233,1.647.113,1.52,0,1.389" transform="translate(279.254 720.352)" fill="url(#o)"/><path d="M1.937,6.366a.685.685,0,0,0,.117.17.326.326,0,0,0,.457-.1A1.03,1.03,0,0,0,2.673,5.9,10.953,10.953,0,0,0,2.6,2.884C2.465,2.1,1.071-1.428.118.642c-.373.805.229,2,.512,2.753A29.8,29.8,0,0,0,1.937,6.366Z" transform="translate(282.824 720.627)" fill="#5dcf65"/><path d="M1.937,6.366a.685.685,0,0,0,.117.17.326.326,0,0,0,.457-.1A1.03,1.03,0,0,0,2.673,5.9,10.953,10.953,0,0,0,2.6,2.884C2.465,2.1,1.071-1.428.118.642c-.373.805.229,2,.512,2.753A29.8,29.8,0,0,0,1.937,6.366Z" transform="translate(282.824 720.627)" fill="url(#p)"/><path d="M1.713,0a12.808,12.808,0,0,0-.391,2.559,26.366,26.366,0,0,0,1.121,7.8,9.031,9.031,0,0,0,1,2.752.645.645,0,0,1,.122.454c-.072.144-.269.167-.439.167-.391,0-.72-.311-1.121-.407-.05.1-.074.169-.122.264A26.94,26.94,0,0,1,.126,1.1,5.4,5.4,0,0,1,.272.214" transform="translate(276.232 714.859)" fill="url(#q)"/><path d="M1.549.008a.793.793,0,0,0-.333.023A.733.733,0,0,0,.982.26,5.193,5.193,0,0,0,.318,2.216,19.962,19.962,0,0,0,.01,5.108a2.213,2.213,0,0,0,.1.885C.364,6.787,1.29,7.14,2.12,7.3a2.9,2.9,0,0,0,2.564-.4,3.243,3.243,0,0,0,.711-2.493c0-.979.4-3.146-.427-3.917C4.248-.132,2.437.077,1.549.008Z" transform="translate(285.57 711.563)" fill="url(#r)"/><path d="M3.761,1.2c-.313.257-.65.512-.962.769a.426.426,0,0,1-.266.14.5.5,0,0,1-.313-.117A9.549,9.549,0,0,1,.58.688.855.855,0,0,1,.243,0C.146,1.471-.022,2.939.006,4.433A1.425,1.425,0,0,0,.151,5.2a1.6,1.6,0,0,0,1.446.56,1.84,1.84,0,0,0,.868-.14,1.843,1.843,0,0,0,.7-1.12c.145-.459.266-.918.41-1.377a7.026,7.026,0,0,0,.237-.955,2.112,2.112,0,0,0-.05-.968Z" transform="translate(286.394 712.662)" fill="url(#s)"/><path d="M23.27,3.53c1.8.217,3.405-1.056,5.132-1.608a6.832,6.832,0,0,1,5.585.708,2.461,2.461,0,0,1,1.054,1.105c.552,1.367-1.007,2.64-2.4,3.192a22.581,22.581,0,0,1-7.1,1.582,14.826,14.826,0,0,0-3.259.361c-1.75.5-3.165,1.823-4.891,2.361a11.773,11.773,0,0,1-5.7-.144c-3.405-.645-6.818-1.3-10.238-1.917a1.73,1.73,0,0,1-.981-.409A1.97,1.97,0,0,1,.09,7.582C-.054,5.9-.146,4.054.8,2.637,2.92-.6,8.326.238,11.632.068a14.6,14.6,0,0,1,5.66.458C19.365,1.275,21.115,3.291,23.27,3.53Z" transform="translate(248.768 692.338)" fill="#5dcf65" opacity="0.37"/><path d="M0,0,2.782.14A8.26,8.26,0,0,1,4.669.37a32.478,32.478,0,0,0-2.541,5.4" transform="translate(297.38 709.366)" fill="url(#t)"/><path d="M0,2.2c.262-.1.524-.2.786-.329A.656.656,0,0,0,1,1.716c.16-.249-.186-.559-.16-.863s.346-.431.613-.5A1.224,1.224,0,0,0,2.2,0" transform="translate(298.204 710.465)" fill="none" stroke="#000" stroke-miterlimit="10" stroke-width="1.54"/><path d="M10.835,16.52a49.119,49.119,0,0,0-7.259.234c.024-1.832.024-3.663.05-5.492a1.213,1.213,0,0,0-.122-.667,1.535,1.535,0,0,0-.461-.4C1.633,9.31.1,8.192.007,6.552A5.1,5.1,0,0,1,.4,4.578a6.251,6.251,0,0,1,1.746-3.09A5.452,5.452,0,0,1,3.721.7,13.5,13.5,0,0,1,9.306.061a2.14,2.14,0,0,1,1.672.76,8.278,8.278,0,0,1,1.287,3.092,20.857,20.857,0,0,1,.365,4.255,21.859,21.859,0,0,1-1.8,8.351Z" transform="translate(285.296 725.845)" fill="#525263"/><path d="M3.674.076a.416.416,0,0,0-.478,0A.414.414,0,0,0,3.125.3c-.172,1.415,0,2.854-.153,4.272A4.677,4.677,0,0,1,1.011,8.209C.86,8.3.017,8.962,0,9.136c-.029.307,1.077-.165,1.388-.186a9.112,9.112,0,0,1,3.7.512c.38.137.874.271,1.135-.033a.936.936,0,0,0,.167-.455,6.113,6.113,0,0,0,.093-2.562c-.153-.6-.49-1.149-.643-1.75a2.969,2.969,0,0,1-.093-.821c0-.215.2-.708.134-.88-.093-.25-.647-.59-.819-.873C4.661,1.409,4.441.484,3.674.076Z" transform="translate(290.789 717.056)" fill="url(#u)"/><path d="M.842,5.551S1.03.793,4.651.39c0,0,.063-.271-.045-.316S2.17-.106,1.956.163A7.793,7.793,0,0,0,.1,6.419l.538.722Z" transform="translate(290.239 704.972)" fill="#5dcf65"/><path d="M.842,5.551S1.03.793,4.651.39c0,0,.063-.271-.045-.316S2.17-.106,1.956.163A7.793,7.793,0,0,0,.1,6.419l.538.722Z" transform="translate(290.239 704.972)" fill="url(#v)"/><path d="M0,.737s.846,3.34.568,4.3.831.7.831.7a7.63,7.63,0,0,1,.483-3A4.956,4.956,0,0,0,2.091,0Z" transform="translate(288.317 705.796)" fill="url(#w)"/><path d="M12.65,1.983c-.084.066-.171.134-.256.2a6.393,6.393,0,0,0-1.187,1.24C10.149,4.933,9.961,7,8.626,8.268A6.527,6.527,0,0,1,4.859,9.678a29.725,29.725,0,0,1-3.686.209c-.392,0-.781,0-1.173-.028A12.413,12.413,0,0,1,1.926,4.926a11,11,0,0,1,2.785-3.6A8.322,8.322,0,0,1,9.663,0a5.934,5.934,0,0,1,3.519.836C13.863,1.358,13.126,1.618,12.65,1.983Z" transform="translate(272.662 703.599)" fill="url(#x)"/><path d="M4.106,1.385a2.229,2.229,0,0,1-.634,1.031c-.409.421-.795.84-1.181,1.261a.528.528,0,0,1-.223.166.392.392,0,0,1-.342-.14A17.492,17.492,0,0,1,.442,2.423a.515.515,0,0,1,.02-.175.555.555,0,0,1-.029.074A.88.88,0,0,1,0,1.548.946.946,0,0,1,.364.731a1.7,1.7,0,0,1,.659-.3A7.608,7.608,0,0,1,3.2.006a.824.824,0,0,1,.726.281.789.789,0,0,1,.127.368.439.439,0,0,1,0,.053,1.694,1.694,0,0,1,.051.677Z" transform="translate(279.254 719.254)" fill="#5dcf65"/><path d="M4.106,1.385a2.229,2.229,0,0,1-.634,1.031c-.409.421-.795.84-1.181,1.261a.528.528,0,0,1-.223.166.392.392,0,0,1-.342-.14A17.492,17.492,0,0,1,.442,2.423a.515.515,0,0,1,.02-.175.555.555,0,0,1-.029.074A.88.88,0,0,1,0,1.548.946.946,0,0,1,.364.731a1.7,1.7,0,0,1,.659-.3A7.608,7.608,0,0,1,3.2.006a.824.824,0,0,1,.726.281.789.789,0,0,1,.127.368.439.439,0,0,1,0,.053,1.694,1.694,0,0,1,.051.677Z" transform="translate(279.254 719.254)" fill="url(#y)"/><path d="M4.1,1.387a2.216,2.216,0,0,1-.636,1.029c-.408.421-.792.842-1.178,1.263a.512.512,0,0,1-.223.163.378.378,0,0,1-.339-.14A17.513,17.513,0,0,1,.441,2.423.891.891,0,0,1,.464,2.25l-.031.074A.882.882,0,0,1,0,1.55.963.963,0,0,1,.366.731a1.716,1.716,0,0,1,.669-.3A7.684,7.684,0,0,1,3.21.006a.834.834,0,0,1,.727.281.86.86,0,0,1,.127.371.491.491,0,0,1,0,.051,1.75,1.75,0,0,1,.038.679Z" transform="translate(269.915 720.077)" fill="#5dcf65"/><path d="M4.106,1.387a2.211,2.211,0,0,1-.634,1.029c-.409.421-.795.842-1.181,1.263a.516.516,0,0,1-.223.163.383.383,0,0,1-.339-.14A17.491,17.491,0,0,1,.444,2.423a1.1,1.1,0,0,1,.02-.173.674.674,0,0,1-.029.071A.88.88,0,0,1,0,1.551.958.958,0,0,1,.366.731a1.684,1.684,0,0,1,.659-.3A7.694,7.694,0,0,1,3.2.006a.824.824,0,0,1,.726.281.805.805,0,0,1,.127.371.491.491,0,0,1,0,.051,1.706,1.706,0,0,1,.049.679Z" transform="translate(269.915 720.077)" fill="url(#z)"/><path d="M14.006,8.591C15.944,6.5,17.858,4.4,19.8,2.278a5.341,5.341,0,0,1,1.53-1.254A5.241,5.241,0,0,1,22.838.736c2.081-.171,4.188-.315,6.27-.474C33.3-.051,37.652-.364,41.6,1.106a58.191,58.191,0,0,1,6.357,3.277,59.566,59.566,0,0,0,6.915,2.845C57.7,8.24,60.544,9.277,63.44,10.095a49.832,49.832,0,0,1,7.468,2.388,38.01,38.01,0,0,1,5.719,3.59q-21.216.218-42.379,1.5c-11.414.7-22.974,1.589-34.247-.289,2.274-2.338,3.3-5.738,5.841-7.786,3.183-2.577,7.706-2.312,11.772-1.9" transform="translate(243 765.944)" fill="#5dcf65"/><path d="M14.006,8.591C15.944,6.5,17.858,4.4,19.8,2.278a5.341,5.341,0,0,1,1.53-1.254A5.241,5.241,0,0,1,22.838.736c2.081-.171,4.188-.315,6.27-.474C33.3-.051,37.652-.364,41.6,1.106a58.191,58.191,0,0,1,6.357,3.277,59.566,59.566,0,0,0,6.915,2.845C57.7,8.24,60.544,9.277,63.44,10.095a49.832,49.832,0,0,1,7.468,2.388,38.01,38.01,0,0,1,5.719,3.59q-21.216.218-42.379,1.5c-11.414.7-22.974,1.589-34.247-.289,2.274-2.338,3.3-5.738,5.841-7.786,3.183-2.577,7.706-2.312,11.772-1.9" transform="translate(243 765.944)" fill="url(#aa)"/><path d="M2.278.277a1.361,1.361,0,0,1,.2.766A10.385,10.385,0,0,1,2.416,2.83c-.016.126-.023.277.082.354a.442.442,0,0,0,.234.053,3.329,3.329,0,0,1,2.014.844,1.561,1.561,0,0,0,.554.4,1.573,1.573,0,0,0,.558.024,3.876,3.876,0,0,1,1.194.133.6.6,0,0,1,.271.131c.175.17.082.467-.093.638a1.453,1.453,0,0,1-1.182.341,4.176,4.176,0,0,1-1.21-.385Q2.643,4.411.489,3.372a.83.83,0,0,1-.278-.179.739.739,0,0,1-.157-.416A3.011,3.011,0,0,1,.211,1.1C.456.549,1.718-.5,2.278.277Z" transform="translate(283.923 763.472)" fill="url(#ab)"/><path d="M3.717,2.224a2.008,2.008,0,0,1-1.489-.347,3.27,3.27,0,0,1-.559-1.2C1.5.265,1.05-.134.632.043A.926.926,0,0,0,.184.651a3.741,3.741,0,0,0-.16,1.587.749.749,0,0,0,.1.345A.739.739,0,0,0,.4,2.8a5.412,5.412,0,0,0,2.4.453,33.158,33.158,0,0,0,6.114-.2,1.289,1.289,0,0,0,.837-.365c.777-.973-1.823-.587-2.171-.576Z" transform="translate(296.831 746.169)" fill="url(#ac)"/></g></svg>